<svg width="149" height="149" viewBox="0 0 149 149" fill="none" xmlns="http://www.w3.org/2000/svg">
<path d="M109 63.5C109 88.629 88.629 109 63.5 109C38.371 109 18 88.629 18 63.5C18 38.371 38.371 18 63.5 18C88.629 18 109 38.371 109 63.5Z" fill="white" fill-opacity="0.31"/>
<path fill-rule="evenodd" clip-rule="evenodd" d="M100.855 114.856C90.373 122.494 77.4629 127 63.5 127C28.4297 127 0 98.5701 0 63.5C0 28.4299 28.4297 0 63.5 0C98.5703 0 127 28.4299 127 63.5C127 77.3896 122.541 90.2378 114.976 100.691L146.071 131.787C149.977 135.692 149.977 142.024 146.071 145.929C142.166 149.834 135.834 149.834 131.929 145.929L100.855 114.856ZM109 63.5C109 88.629 88.629 109 63.5 109C38.371 109 18 88.629 18 63.5C18 38.371 38.371 18 63.5 18C88.629 18 109 38.371 109 63.5Z" fill="url(#paint0_linear_36_18)"/>
<defs>
<linearGradient id="paint0_linear_36_18" x1="74.5001" y1="0" x2="74.5001" y2="148.858" gradientUnits="userSpaceOnUse">
<stop stop-color="#454545"/>
<stop offset="1" stop-color="#202020"/>
</linearGradient>
</defs>
</svg>