<svg width="108" height="100" viewBox="0 0 108 100" fill="none" xmlns="http://www.w3.org/2000/svg">
<g filter="url(#filter0_f_203_412)">
<ellipse cx="53.5" cy="67.6182" rx="31.5" ry="9.5" fill="#4DB4FF"/>
</g>
<g filter="url(#filter1_bi_203_412)">
<path fill-rule="evenodd" clip-rule="evenodd" d="M77 30.1182C77 30.9064 76.9696 31.6875 76.9099 32.4604C80.1949 29.7478 84.4071 28.1182 89 28.1182C99.4934 28.1182 108 36.6248 108 47.1182C108 57.2761 100.029 65.5723 90 66.0923V66.1182H89H19H17V66.0142C7.44667 65.0148 0 56.9361 0 47.1182C0 37.2799 7.47752 29.1881 17.0593 28.2161C18.0405 12.5337 31.0704 0.118164 47 0.118164C63.5685 0.118164 77 13.5496 77 30.1182Z" fill="url(#paint0_linear_203_412)"/>
</g>
<path fill-rule="evenodd" clip-rule="evenodd" d="M41 41.1182C42.3807 41.1182 43.5 42.2375 43.5 43.6182L43.5 58.6182C43.5 59.9989 42.3807 61.1182 41 61.1182C39.6193 61.1182 38.5 59.9989 38.5 58.6182L38.5 43.6182C38.5 42.2375 39.6193 41.1182 41 41.1182ZM67 46.1182C68.3807 46.1182 69.5 47.2375 69.5 48.6182V76.6182C69.5 77.9989 68.3807 79.1182 67 79.1182C65.6193 79.1182 64.5 77.9989 64.5 76.6182V48.6182C64.5 47.2375 65.6193 46.1182 67 46.1182ZM54 53.1182C55.3807 53.1182 56.5 54.2375 56.5 55.6182V64.6182C56.5 65.9989 55.3807 67.1182 54 67.1182C52.6193 67.1182 51.5 65.9989 51.5 64.6182V55.6182C51.5 54.2375 52.6193 53.1182 54 53.1182ZM54 73.1182C55.3807 73.1182 56.5 74.2375 56.5 75.6182V93.6182C56.5 94.9989 55.3807 96.1182 54 96.1182C52.6193 96.1182 51.5 94.9989 51.5 93.6182V75.6182C51.5 74.2375 52.6193 73.1182 54 73.1182ZM69.5 86.6182C69.5 85.2375 68.3807 84.1182 67 84.1182C65.6193 84.1182 64.5 85.2375 64.5 86.6182V93.6182C64.5 94.9989 65.6193 96.1182 67 96.1182C68.3807 96.1182 69.5 94.9989 69.5 93.6182V86.6182ZM82.5 60.6182C82.5 59.2375 81.3807 58.1182 80 58.1182C78.6193 58.1182 77.5 59.2375 77.5 60.6182V67.6182C77.5 68.9989 78.6193 70.1182 80 70.1182C81.3807 70.1182 82.5 68.9989 82.5 67.6182V60.6182ZM80 76.1182C81.3807 76.1182 82.5 77.2375 82.5 78.6182V93.6182C82.5 94.9989 81.3807 96.1182 80 96.1182C78.6193 96.1182 77.5 94.9989 77.5 93.6182V78.6182C77.5 77.2375 78.6193 76.1182 80 76.1182ZM43.5 68.6182C43.5 67.2375 42.3807 66.1182 41 66.1182C39.6193 66.1182 38.5 67.2375 38.5 68.6182V75.6182C38.5 76.9989 39.6193 78.1182 41 78.1182C42.3807 78.1182 43.5 76.9989 43.5 75.6182V68.6182ZM43.5 86.6182C43.5 85.2375 42.3807 84.1182 41 84.1182C39.6193 84.1182 38.5 85.2375 38.5 86.6182V93.6182C38.5 94.9989 39.6193 96.1182 41 96.1182C42.3807 96.1182 43.5 94.9989 43.5 93.6182V86.6182ZM27 51.1182C28.3807 51.1182 29.5 52.2375 29.5 53.6182L29.5 61.6182C29.5 62.9989 28.3807 64.1182 27 64.1182C25.6193 64.1182 24.5 62.9989 24.5 61.6182V53.6182C24.5 52.2375 25.6193 51.1182 27 51.1182ZM29.5 73.6182C29.5 72.2375 28.3807 71.1182 27 71.1182C25.6193 71.1182 24.5 72.2375 24.5 73.6182V93.6182C24.5 94.9989 25.6193 96.1182 27 96.1182C28.3807 96.1182 29.5 94.9989 29.5 93.6182L29.5 73.6182Z" fill="url(#paint1_linear_203_412)"/>
<path fill-rule="evenodd" clip-rule="evenodd" d="M56.0002 66.1182H51.9998C51.686 65.7003 51.5 65.181 51.5 64.6182V55.6182C51.5 54.2375 52.6193 53.1182 54 53.1182C55.3807 53.1182 56.5 54.2375 56.5 55.6182V64.6182C56.5 65.181 56.314 65.7003 56.0002 66.1182ZM69.5 66.1182H64.5V48.6182C64.5 47.2375 65.6193 46.1182 67 46.1182C68.3807 46.1182 69.5 47.2375 69.5 48.6182V66.1182ZM82.5 66.1182H77.5V60.6182C77.5 59.2375 78.6193 58.1182 80 58.1182C81.3807 58.1182 82.5 59.2375 82.5 60.6182V66.1182ZM43.5 43.6182C43.5 42.2375 42.3807 41.1182 41 41.1182C39.6193 41.1182 38.5 42.2375 38.5 43.6182L38.5 58.6182C38.5 59.9989 39.6193 61.1182 41 61.1182C42.3807 61.1182 43.5 59.9989 43.5 58.6182L43.5 43.6182ZM29.5 53.6182C29.5 52.2375 28.3807 51.1182 27 51.1182C25.6193 51.1182 24.5 52.2375 24.5 53.6182V61.6182C24.5 62.9989 25.6193 64.1182 27 64.1182C28.3807 64.1182 29.5 62.9989 29.5 61.6182L29.5 53.6182Z" fill="#E0F3FE"/>
<defs>
<filter id="filter0_f_203_412" x="0" y="36.1182" width="107" height="63" filterUnits="userSpaceOnUse" color-interpolation-filters="sRGB">
<feFlood flood-opacity="0" result="BackgroundImageFix"/>
<feBlend mode="normal" in="SourceGraphic" in2="BackgroundImageFix" result="shape"/>
<feGaussianBlur stdDeviation="11" result="effect1_foregroundBlur_203_412"/>
</filter>
<filter id="filter1_bi_203_412" x="-7" y="-6.88184" width="122" height="80" filterUnits="userSpaceOnUse" color-interpolation-filters="sRGB">
<feFlood flood-opacity="0" result="BackgroundImageFix"/>
<feGaussianBlur in="BackgroundImageFix" stdDeviation="3.5"/>
<feComposite in2="SourceAlpha" operator="in" result="effect1_backgroundBlur_203_412"/>
<feBlend mode="normal" in="SourceGraphic" in2="effect1_backgroundBlur_203_412" result="shape"/>
<feColorMatrix in="SourceAlpha" type="matrix" values="0 0 0 0 0 0 0 0 0 0 0 0 0 0 0 0 0 0 127 0" result="hardAlpha"/>
<feOffset dy="2"/>
<feGaussianBlur stdDeviation="4"/>
<feComposite in2="hardAlpha" operator="arithmetic" k2="-1" k3="1"/>
<feColorMatrix type="matrix" values="0 0 0 0 0 0 0 0 0 0.82 0 0 0 0 1 0 0 0 0.25 0"/>
<feBlend mode="normal" in2="shape" result="effect2_innerShadow_203_412"/>
</filter>
<linearGradient id="paint0_linear_203_412" x1="56" y1="89.6182" x2="96.5" y2="0.118164" gradientUnits="userSpaceOnUse">
<stop stop-color="#0082DF"/>
<stop offset="0.299998" stop-color="#48B2FF" stop-opacity="0.75"/>
<stop offset="1" stop-color="#3BADFF" stop-opacity="0"/>
</linearGradient>
<linearGradient id="paint1_linear_203_412" x1="53.5" y1="41.1182" x2="53.5" y2="96.1182" gradientUnits="userSpaceOnUse">
<stop offset="0.168182" stop-color="#D7F0FF"/>
<stop offset="1" stop-color="#0072DC"/>
</linearGradient>
</defs>
</svg>
