<svg width="108" height="100" viewBox="0 0 108 100" fill="none" xmlns="http://www.w3.org/2000/svg">
<g filter="url(#filter0_f_203_508)">
<ellipse cx="53.5" cy="67.6768" rx="31.5" ry="9.5" fill="#4DB4FF"/>
</g>
<g filter="url(#filter1_bi_203_508)">
<path fill-rule="evenodd" clip-rule="evenodd" d="M77 30.1768C77 30.965 76.9696 31.7461 76.9099 32.519C80.1949 29.8064 84.4071 28.1768 89 28.1768C99.4934 28.1768 108 36.6833 108 47.1768C108 57.3347 100.029 65.6309 90 66.1509V66.1768H89H19H17V66.0727C7.44667 65.0734 0 56.9947 0 47.1768C0 37.3385 7.47752 29.2467 17.0593 28.2747C18.0405 12.5923 31.0704 0.176758 47 0.176758C63.5685 0.176758 77 13.6082 77 30.1768Z" fill="url(#paint0_linear_203_508)"/>
</g>
<path fill-rule="evenodd" clip-rule="evenodd" d="M41 41.1768C42.3807 41.1768 43.5 42.296 43.5 43.6768L43.5 58.6768C43.5 60.0575 42.3807 61.1768 41 61.1768C39.6193 61.1768 38.5 60.0575 38.5 58.6768L38.5 43.6768C38.5 42.296 39.6193 41.1768 41 41.1768ZM67 46.1768C68.3807 46.1768 69.5 47.296 69.5 48.6768V76.6768C69.5 78.0575 68.3807 79.1768 67 79.1768C65.6193 79.1768 64.5 78.0575 64.5 76.6768V48.6768C64.5 47.296 65.6193 46.1768 67 46.1768ZM54 53.1768C55.3807 53.1768 56.5 54.296 56.5 55.6768V64.6768C56.5 66.0575 55.3807 67.1768 54 67.1768C52.6193 67.1768 51.5 66.0575 51.5 64.6768V55.6768C51.5 54.296 52.6193 53.1768 54 53.1768ZM54 73.1768C55.3807 73.1768 56.5 74.296 56.5 75.6768V93.6768C56.5 95.0575 55.3807 96.1768 54 96.1768C52.6193 96.1768 51.5 95.0575 51.5 93.6768V75.6768C51.5 74.296 52.6193 73.1768 54 73.1768ZM69.5 86.6768C69.5 85.296 68.3807 84.1768 67 84.1768C65.6193 84.1768 64.5 85.296 64.5 86.6768V93.6768C64.5 95.0575 65.6193 96.1768 67 96.1768C68.3807 96.1768 69.5 95.0575 69.5 93.6768V86.6768ZM82.5 60.6768C82.5 59.296 81.3807 58.1768 80 58.1768C78.6193 58.1768 77.5 59.296 77.5 60.6768V67.6768C77.5 69.0575 78.6193 70.1768 80 70.1768C81.3807 70.1768 82.5 69.0575 82.5 67.6768V60.6768ZM80 76.1768C81.3807 76.1768 82.5 77.296 82.5 78.6768V93.6768C82.5 95.0575 81.3807 96.1768 80 96.1768C78.6193 96.1768 77.5 95.0575 77.5 93.6768V78.6768C77.5 77.296 78.6193 76.1768 80 76.1768ZM43.5 68.6768C43.5 67.296 42.3807 66.1768 41 66.1768C39.6193 66.1768 38.5 67.296 38.5 68.6768V75.6768C38.5 77.0575 39.6193 78.1768 41 78.1768C42.3807 78.1768 43.5 77.0575 43.5 75.6768V68.6768ZM43.5 86.6768C43.5 85.296 42.3807 84.1768 41 84.1768C39.6193 84.1768 38.5 85.296 38.5 86.6768V93.6768C38.5 95.0575 39.6193 96.1768 41 96.1768C42.3807 96.1768 43.5 95.0575 43.5 93.6768V86.6768ZM27 51.1768C28.3807 51.1768 29.5 52.296 29.5 53.6768L29.5 61.6768C29.5 63.0575 28.3807 64.1768 27 64.1768C25.6193 64.1768 24.5 63.0575 24.5 61.6768V53.6768C24.5 52.296 25.6193 51.1768 27 51.1768ZM29.5 73.6768C29.5 72.296 28.3807 71.1768 27 71.1768C25.6193 71.1768 24.5 72.296 24.5 73.6768V93.6768C24.5 95.0575 25.6193 96.1768 27 96.1768C28.3807 96.1768 29.5 95.0575 29.5 93.6768L29.5 73.6768Z" fill="url(#paint1_linear_203_508)"/>
<path fill-rule="evenodd" clip-rule="evenodd" d="M56.0002 66.1768H51.9998C51.686 65.7589 51.5 65.2396 51.5 64.6768V55.6768C51.5 54.296 52.6193 53.1768 54 53.1768C55.3807 53.1768 56.5 54.296 56.5 55.6768V64.6768C56.5 65.2396 56.314 65.7589 56.0002 66.1768ZM69.5 66.1768H64.5V48.6768C64.5 47.296 65.6193 46.1768 67 46.1768C68.3807 46.1768 69.5 47.296 69.5 48.6768V66.1768ZM82.5 66.1768H77.5V60.6768C77.5 59.296 78.6193 58.1768 80 58.1768C81.3807 58.1768 82.5 59.296 82.5 60.6768V66.1768ZM43.5 43.6768C43.5 42.296 42.3807 41.1768 41 41.1768C39.6193 41.1768 38.5 42.296 38.5 43.6768L38.5 58.6768C38.5 60.0575 39.6193 61.1768 41 61.1768C42.3807 61.1768 43.5 60.0575 43.5 58.6768L43.5 43.6768ZM29.5 53.6768C29.5 52.296 28.3807 51.1768 27 51.1768C25.6193 51.1768 24.5 52.296 24.5 53.6768V61.6768C24.5 63.0575 25.6193 64.1768 27 64.1768C28.3807 64.1768 29.5 63.0575 29.5 61.6768L29.5 53.6768Z" fill="#E0F3FE"/>
<defs>
<filter id="filter0_f_203_508" x="0" y="36.1768" width="107" height="63" filterUnits="userSpaceOnUse" color-interpolation-filters="sRGB">
<feFlood flood-opacity="0" result="BackgroundImageFix"/>
<feBlend mode="normal" in="SourceGraphic" in2="BackgroundImageFix" result="shape"/>
<feGaussianBlur stdDeviation="11" result="effect1_foregroundBlur_203_508"/>
</filter>
<filter id="filter1_bi_203_508" x="-7" y="-6.82324" width="122" height="80" filterUnits="userSpaceOnUse" color-interpolation-filters="sRGB">
<feFlood flood-opacity="0" result="BackgroundImageFix"/>
<feGaussianBlur in="BackgroundImageFix" stdDeviation="3.5"/>
<feComposite in2="SourceAlpha" operator="in" result="effect1_backgroundBlur_203_508"/>
<feBlend mode="normal" in="SourceGraphic" in2="effect1_backgroundBlur_203_508" result="shape"/>
<feColorMatrix in="SourceAlpha" type="matrix" values="0 0 0 0 0 0 0 0 0 0 0 0 0 0 0 0 0 0 127 0" result="hardAlpha"/>
<feOffset dy="2"/>
<feGaussianBlur stdDeviation="4"/>
<feComposite in2="hardAlpha" operator="arithmetic" k2="-1" k3="1"/>
<feColorMatrix type="matrix" values="0 0 0 0 0 0 0 0 0 0.82 0 0 0 0 1 0 0 0 0.25 0"/>
<feBlend mode="normal" in2="shape" result="effect2_innerShadow_203_508"/>
</filter>
<linearGradient id="paint0_linear_203_508" x1="56" y1="89.6768" x2="96.5" y2="0.176758" gradientUnits="userSpaceOnUse">
<stop stop-color="#0082DF"/>
<stop offset="0.299998" stop-color="#48B2FF" stop-opacity="0.75"/>
<stop offset="1" stop-color="#3BADFF" stop-opacity="0"/>
</linearGradient>
<linearGradient id="paint1_linear_203_508" x1="53.5" y1="41.1768" x2="53.5" y2="96.1768" gradientUnits="userSpaceOnUse">
<stop offset="0.168182" stop-color="#D7F0FF"/>
<stop offset="1" stop-color="#0072DC"/>
</linearGradient>
</defs>
</svg>
