<svg width="130" height="99" viewBox="0 0 130 99" fill="none" xmlns="http://www.w3.org/2000/svg">
<g filter="url(#filter0_f_203_244)">
<ellipse cx="54.3483" cy="67.5" rx="31.5" ry="9.5" fill="#4DB4FF"/>
</g>
<g filter="url(#filter1_bi_203_244)">
<path fill-rule="evenodd" clip-rule="evenodd" d="M77.8483 30C77.8483 30.7882 77.8179 31.5693 77.7582 32.3422C81.0431 29.6296 85.2554 28 89.8483 28C100.342 28 108.848 36.5066 108.848 47C108.848 57.158 100.877 65.4541 90.8483 65.9741V66H89.8483H19.8483H17.8483V65.896C8.29494 64.8966 0.848267 56.8179 0.848267 47C0.848267 37.1618 8.32578 29.07 17.9076 28.0979C18.8888 12.4156 31.9186 0 47.8483 0C64.4168 0 77.8483 13.4315 77.8483 30Z" fill="url(#paint0_linear_203_244)"/>
</g>
<path fill-rule="evenodd" clip-rule="evenodd" d="M126.28 47.9113H113.921C113.342 47.8165 112.816 47.5191 112.436 47.0723C112.057 46.6254 111.848 46.0582 111.848 45.4719C111.848 44.8856 112.057 44.3184 112.436 43.8715C112.816 43.4247 113.342 43.1273 113.921 43.0325H126.28C126.634 42.9746 126.996 42.9942 127.341 43.0901C127.687 43.1861 128.007 43.3559 128.28 43.588C128.553 43.82 128.773 44.1087 128.923 44.434C129.074 44.7593 129.152 45.1135 129.152 45.4719C129.152 45.8303 129.074 46.1845 128.923 46.5098C128.773 46.8351 128.553 47.1238 128.28 47.3558C128.007 47.5879 127.687 47.7578 127.341 47.8537C126.996 47.9496 126.634 47.9693 126.28 47.9113ZM98.9516 47.9113H40.8617C40.508 47.9693 40.1459 47.9496 39.8006 47.8537C39.4552 47.7578 39.1348 47.5879 38.8616 47.3559C38.5885 47.1238 38.3691 46.8351 38.2186 46.5098C38.0681 46.1845 37.9901 45.8303 37.9901 45.4719C37.9901 45.1135 38.0681 44.7593 38.2186 44.434C38.3691 44.1087 38.5885 43.82 38.8616 43.588C39.1348 43.3559 39.4552 43.1861 39.8006 43.0901C40.1459 42.9942 40.508 42.9746 40.8617 43.0325H98.9516C99.3053 42.9746 99.6674 42.9942 100.013 43.0901C100.358 43.1861 100.679 43.3559 100.952 43.588C101.225 43.82 101.444 44.1087 101.595 44.434C101.745 44.7593 101.823 45.1135 101.823 45.4719C101.823 45.8303 101.745 46.1845 101.595 46.5098C101.444 46.8351 101.225 47.1238 100.952 47.3559C100.679 47.5879 100.358 47.7578 100.013 47.8537C99.6674 47.9496 99.3053 47.9693 98.9516 47.9113ZM30.7137 74.6139H121.654C122.31 74.6138 122.938 74.3534 123.402 73.8898C123.866 73.4262 124.126 72.7975 124.126 72.1419C124.126 71.4863 123.866 70.8576 123.402 70.394C122.938 69.9304 122.31 69.67 121.654 69.67H30.7137C30.0581 69.67 29.4294 69.9304 28.9658 70.394C28.5022 70.8576 28.2418 71.4863 28.2418 72.1419C28.2418 72.7975 28.5022 73.4262 28.9658 73.8898C29.4294 74.3534 30.0581 74.6138 30.7137 74.6139ZM82.4938 59.23H14.2561C13.9376 59.239 13.6206 59.1829 13.3245 59.0651C13.0284 58.9473 12.7595 58.7704 12.5342 58.5451C12.3088 58.3198 12.1319 58.0508 12.0141 57.7547C11.8963 57.4587 11.8402 57.1416 11.8492 56.8231C11.8405 56.5016 11.8964 56.1816 12.0134 55.8821C12.1305 55.5825 12.3064 55.3095 12.5307 55.079C12.7551 54.8486 13.0234 54.6655 13.3197 54.5405C13.6161 54.4155 13.9344 54.3511 14.2561 54.3513H82.4938C83.1381 54.3682 83.7502 54.6361 84.1998 55.0978C84.6494 55.5596 84.9009 56.1786 84.9007 56.8231C84.9007 57.4615 84.6471 58.0737 84.1957 58.5251C83.7444 58.9764 83.1322 59.23 82.4938 59.23ZM96.4144 59.23H116.385C116.703 59.239 117.02 59.1829 117.316 59.0651C117.613 58.9473 117.881 58.7704 118.107 58.5451C118.332 58.3198 118.509 58.0508 118.627 57.7547C118.745 57.4587 118.801 57.1416 118.792 56.8231C118.8 56.5016 118.745 56.1816 118.628 55.8821C118.51 55.5825 118.335 55.3095 118.11 55.079C117.886 54.8486 117.618 54.6655 117.321 54.5405C117.025 54.4155 116.706 54.3511 116.385 54.3513H96.4144C95.7588 54.3513 95.1301 54.6116 94.6665 55.0752C94.2029 55.5388 93.9425 56.1675 93.9425 56.8231C93.9424 57.1447 94.0067 57.4632 94.1317 57.7595C94.2567 58.0558 94.4399 58.3241 94.6703 58.5485C94.9007 58.7728 95.1738 58.9488 95.4734 59.0658C95.7729 59.1829 96.0929 59.2387 96.4144 59.23Z" fill="url(#paint1_linear_203_244)"/>
<path fill-rule="evenodd" clip-rule="evenodd" d="M107.374 54.3513C106.626 56.1317 105.615 57.7742 104.389 59.23H96.4143C96.0928 59.2387 95.7728 59.1829 95.4732 59.0658C95.1737 58.9488 94.9006 58.7728 94.6702 58.5485C94.4398 58.3241 94.2566 58.0558 94.1316 57.7595C94.0066 57.4632 93.9423 57.1447 93.9424 56.8231C93.9424 56.1675 94.2028 55.5388 94.6664 55.0752C95.13 54.6116 95.7587 54.3513 96.4143 54.3513H107.374ZM40.8616 47.9113H98.9515C99.3052 47.9693 99.6673 47.9496 100.013 47.8537C100.358 47.7578 100.678 47.5879 100.952 47.3558C101.225 47.1238 101.444 46.8351 101.595 46.5098C101.745 46.1845 101.823 45.8303 101.823 45.4719C101.823 45.1135 101.745 44.7593 101.595 44.434C101.444 44.1087 101.225 43.82 100.952 43.588C100.678 43.3559 100.358 43.1861 100.013 43.0901C99.6673 42.9942 99.3052 42.9746 98.9515 43.0325H40.8616C40.5079 42.9746 40.1458 42.9942 39.8004 43.0901C39.4551 43.1861 39.1347 43.3559 38.8615 43.588C38.5884 43.82 38.3689 44.1087 38.2184 44.434C38.068 44.7593 37.99 45.1135 37.99 45.4719C37.99 45.8303 38.068 46.1845 38.2184 46.5098C38.3689 46.8351 38.5884 47.1238 38.8615 47.3558C39.1347 47.5879 39.4551 47.7578 39.8004 47.8537C40.1458 47.9496 40.5079 47.9693 40.8616 47.9113ZM14.2559 59.23H82.4937C83.132 59.23 83.7442 58.9764 84.1956 58.5251C84.647 58.0737 84.9005 57.4615 84.9005 56.8231C84.9008 56.1786 84.6493 55.5596 84.1997 55.0978C83.7501 54.6361 83.138 54.3682 82.4937 54.3513H14.2559C13.9343 54.3511 13.616 54.4155 13.3196 54.5405C13.0233 54.6655 12.755 54.8486 12.5306 55.079C12.3063 55.3095 12.1303 55.5825 12.0133 55.8821C11.8962 56.1816 11.8404 56.5016 11.8491 56.8231C11.8401 57.1416 11.8962 57.4587 12.014 57.7547C12.1318 58.0508 12.3087 58.3198 12.534 58.5451C12.7594 58.7704 13.0283 58.9473 13.3244 59.0651C13.6205 59.1829 13.9374 59.239 14.2559 59.23Z" fill="#E0F3FE"/>
<defs>
<filter id="filter0_f_203_244" x="0.848267" y="36" width="107" height="63" filterUnits="userSpaceOnUse" color-interpolation-filters="sRGB">
<feFlood flood-opacity="0" result="BackgroundImageFix"/>
<feBlend mode="normal" in="SourceGraphic" in2="BackgroundImageFix" result="shape"/>
<feGaussianBlur stdDeviation="11" result="effect1_foregroundBlur_203_244"/>
</filter>
<filter id="filter1_bi_203_244" x="-6.15173" y="-7" width="122" height="80" filterUnits="userSpaceOnUse" color-interpolation-filters="sRGB">
<feFlood flood-opacity="0" result="BackgroundImageFix"/>
<feGaussianBlur in="BackgroundImageFix" stdDeviation="3.5"/>
<feComposite in2="SourceAlpha" operator="in" result="effect1_backgroundBlur_203_244"/>
<feBlend mode="normal" in="SourceGraphic" in2="effect1_backgroundBlur_203_244" result="shape"/>
<feColorMatrix in="SourceAlpha" type="matrix" values="0 0 0 0 0 0 0 0 0 0 0 0 0 0 0 0 0 0 127 0" result="hardAlpha"/>
<feOffset dy="2"/>
<feGaussianBlur stdDeviation="4"/>
<feComposite in2="hardAlpha" operator="arithmetic" k2="-1" k3="1"/>
<feColorMatrix type="matrix" values="0 0 0 0 0 0 0 0 0 0.82 0 0 0 0 1 0 0 0 0.25 0"/>
<feBlend mode="normal" in2="shape" result="effect2_innerShadow_203_244"/>
</filter>
<linearGradient id="paint0_linear_203_244" x1="56.8483" y1="89.5" x2="97.3483" y2="1.95655e-07" gradientUnits="userSpaceOnUse">
<stop stop-color="#0082DF"/>
<stop offset="0.299998" stop-color="#48B2FF" stop-opacity="0.75"/>
<stop offset="1" stop-color="#3BADFF" stop-opacity="0"/>
</linearGradient>
<linearGradient id="paint1_linear_203_244" x1="70.4999" y1="-38.5" x2="70.4999" y2="77.5" gradientUnits="userSpaceOnUse">
<stop stop-color="#D7F0FF"/>
<stop offset="1" stop-color="#0072DC"/>
</linearGradient>
</defs>
</svg>
