<svg width="108" height="100" viewBox="0 0 108 100" fill="none" xmlns="http://www.w3.org/2000/svg">
<g filter="url(#filter0_f_203_784)">
<ellipse cx="53.5" cy="67.5488" rx="31.5" ry="9.5" fill="#4DB4FF"/>
</g>
<g filter="url(#filter1_bi_203_784)">
<path fill-rule="evenodd" clip-rule="evenodd" d="M77 30.0488C77 30.837 76.9696 31.6182 76.9099 32.3911C80.1949 29.6785 84.4071 28.0488 89 28.0488C99.4934 28.0488 108 36.5554 108 47.0488C108 57.2068 100.029 65.503 90 66.023V66.0488H89H19H17V65.9448C7.44667 64.9454 0 56.8668 0 47.0488C0 37.2106 7.47752 29.1188 17.0593 28.1467C18.0405 12.4644 31.0704 0.0488281 47 0.0488281C63.5685 0.0488281 77 13.4803 77 30.0488Z" fill="url(#paint0_linear_203_784)"/>
</g>
<path fill-rule="evenodd" clip-rule="evenodd" d="M41 41.0488C42.3807 41.0488 43.5 42.1681 43.5 43.5488L43.5 58.5488C43.5 59.9295 42.3807 61.0488 41 61.0488C39.6193 61.0488 38.5 59.9295 38.5 58.5488L38.5 43.5488C38.5 42.1681 39.6193 41.0488 41 41.0488ZM67 46.0488C68.3807 46.0488 69.5 47.1681 69.5 48.5488V76.5488C69.5 77.9295 68.3807 79.0488 67 79.0488C65.6193 79.0488 64.5 77.9295 64.5 76.5488V48.5488C64.5 47.1681 65.6193 46.0488 67 46.0488ZM54 53.0488C55.3807 53.0488 56.5 54.1681 56.5 55.5488V64.5488C56.5 65.9295 55.3807 67.0488 54 67.0488C52.6193 67.0488 51.5 65.9295 51.5 64.5488V55.5488C51.5 54.1681 52.6193 53.0488 54 53.0488ZM54 73.0488C55.3807 73.0488 56.5 74.1681 56.5 75.5488V93.5488C56.5 94.9295 55.3807 96.0488 54 96.0488C52.6193 96.0488 51.5 94.9295 51.5 93.5488V75.5488C51.5 74.1681 52.6193 73.0488 54 73.0488ZM69.5 86.5488C69.5 85.1681 68.3807 84.0488 67 84.0488C65.6193 84.0488 64.5 85.1681 64.5 86.5488V93.5488C64.5 94.9295 65.6193 96.0488 67 96.0488C68.3807 96.0488 69.5 94.9295 69.5 93.5488V86.5488ZM82.5 60.5488C82.5 59.1681 81.3807 58.0488 80 58.0488C78.6193 58.0488 77.5 59.1681 77.5 60.5488V67.5488C77.5 68.9295 78.6193 70.0488 80 70.0488C81.3807 70.0488 82.5 68.9295 82.5 67.5488V60.5488ZM80 76.0488C81.3807 76.0488 82.5 77.1681 82.5 78.5488V93.5488C82.5 94.9295 81.3807 96.0488 80 96.0488C78.6193 96.0488 77.5 94.9295 77.5 93.5488V78.5488C77.5 77.1681 78.6193 76.0488 80 76.0488ZM43.5 68.5488C43.5 67.1681 42.3807 66.0488 41 66.0488C39.6193 66.0488 38.5 67.1681 38.5 68.5488V75.5488C38.5 76.9295 39.6193 78.0488 41 78.0488C42.3807 78.0488 43.5 76.9295 43.5 75.5488V68.5488ZM43.5 86.5488C43.5 85.1681 42.3807 84.0488 41 84.0488C39.6193 84.0488 38.5 85.1681 38.5 86.5488V93.5488C38.5 94.9295 39.6193 96.0488 41 96.0488C42.3807 96.0488 43.5 94.9295 43.5 93.5488V86.5488ZM27 51.0488C28.3807 51.0488 29.5 52.1681 29.5 53.5488L29.5 61.5488C29.5 62.9295 28.3807 64.0488 27 64.0488C25.6193 64.0488 24.5 62.9295 24.5 61.5488V53.5488C24.5 52.1681 25.6193 51.0488 27 51.0488ZM29.5 73.5488C29.5 72.1681 28.3807 71.0488 27 71.0488C25.6193 71.0488 24.5 72.1681 24.5 73.5488V93.5488C24.5 94.9295 25.6193 96.0488 27 96.0488C28.3807 96.0488 29.5 94.9295 29.5 93.5488L29.5 73.5488Z" fill="url(#paint1_linear_203_784)"/>
<path fill-rule="evenodd" clip-rule="evenodd" d="M56.0002 66.0488H51.9998C51.686 65.631 51.5 65.1116 51.5 64.5488V55.5488C51.5 54.1681 52.6193 53.0488 54 53.0488C55.3807 53.0488 56.5 54.1681 56.5 55.5488V64.5488C56.5 65.1116 56.314 65.631 56.0002 66.0488ZM69.5 66.0488H64.5V48.5488C64.5 47.1681 65.6193 46.0488 67 46.0488C68.3807 46.0488 69.5 47.1681 69.5 48.5488V66.0488ZM82.5 66.0488H77.5V60.5488C77.5 59.1681 78.6193 58.0488 80 58.0488C81.3807 58.0488 82.5 59.1681 82.5 60.5488V66.0488ZM43.5 43.5488C43.5 42.1681 42.3807 41.0488 41 41.0488C39.6193 41.0488 38.5 42.1681 38.5 43.5488L38.5 58.5488C38.5 59.9295 39.6193 61.0488 41 61.0488C42.3807 61.0488 43.5 59.9295 43.5 58.5488L43.5 43.5488ZM29.5 53.5488C29.5 52.1681 28.3807 51.0488 27 51.0488C25.6193 51.0488 24.5 52.1681 24.5 53.5488V61.5488C24.5 62.9295 25.6193 64.0488 27 64.0488C28.3807 64.0488 29.5 62.9295 29.5 61.5488L29.5 53.5488Z" fill="#E0F3FE"/>
<defs>
<filter id="filter0_f_203_784" x="0" y="36.0488" width="107" height="63" filterUnits="userSpaceOnUse" color-interpolation-filters="sRGB">
<feFlood flood-opacity="0" result="BackgroundImageFix"/>
<feBlend mode="normal" in="SourceGraphic" in2="BackgroundImageFix" result="shape"/>
<feGaussianBlur stdDeviation="11" result="effect1_foregroundBlur_203_784"/>
</filter>
<filter id="filter1_bi_203_784" x="-7" y="-6.95117" width="122" height="80" filterUnits="userSpaceOnUse" color-interpolation-filters="sRGB">
<feFlood flood-opacity="0" result="BackgroundImageFix"/>
<feGaussianBlur in="BackgroundImageFix" stdDeviation="3.5"/>
<feComposite in2="SourceAlpha" operator="in" result="effect1_backgroundBlur_203_784"/>
<feBlend mode="normal" in="SourceGraphic" in2="effect1_backgroundBlur_203_784" result="shape"/>
<feColorMatrix in="SourceAlpha" type="matrix" values="0 0 0 0 0 0 0 0 0 0 0 0 0 0 0 0 0 0 127 0" result="hardAlpha"/>
<feOffset dy="2"/>
<feGaussianBlur stdDeviation="4"/>
<feComposite in2="hardAlpha" operator="arithmetic" k2="-1" k3="1"/>
<feColorMatrix type="matrix" values="0 0 0 0 0 0 0 0 0 0.82 0 0 0 0 1 0 0 0 0.25 0"/>
<feBlend mode="normal" in2="shape" result="effect2_innerShadow_203_784"/>
</filter>
<linearGradient id="paint0_linear_203_784" x1="56" y1="89.5488" x2="96.5" y2="0.0488283" gradientUnits="userSpaceOnUse">
<stop stop-color="#0082DF"/>
<stop offset="0.299998" stop-color="#48B2FF" stop-opacity="0.75"/>
<stop offset="1" stop-color="#3BADFF" stop-opacity="0"/>
</linearGradient>
<linearGradient id="paint1_linear_203_784" x1="53.5" y1="41.0488" x2="53.5" y2="96.0488" gradientUnits="userSpaceOnUse">
<stop offset="0.168182" stop-color="#D7F0FF"/>
<stop offset="1" stop-color="#0072DC"/>
</linearGradient>
</defs>
</svg>
