<svg width="108" height="104" viewBox="0 0 108 104" fill="none" xmlns="http://www.w3.org/2000/svg">
<g filter="url(#filter0_f_203_1080)">
<ellipse cx="53.5" cy="68.1753" rx="31.5" ry="9.5" fill="#4DB4FF"/>
</g>
<path fill-rule="evenodd" clip-rule="evenodd" d="M41.8166 56.4911C41.8166 54.936 40.556 53.6753 39.0008 53.6753C37.4457 53.6753 36.185 54.936 36.185 56.4911V59.8782L33.79 57.4832C32.6903 56.3835 30.9074 56.3835 29.8078 57.4832C28.7082 58.5828 28.7082 60.3657 29.8078 61.4653L32.203 63.8605H28.8158C27.2607 63.8605 26 65.1212 26 66.6763C26 68.2314 27.2607 69.4921 28.8158 69.4921H32.2028L29.8077 71.8872C28.7081 72.9868 28.7081 74.7697 29.8077 75.8694C30.9074 76.969 32.6902 76.969 33.7899 75.8694L36.185 73.4742V76.8615C36.185 78.4166 37.4457 79.6773 39.0008 79.6773C40.556 79.6773 41.8166 78.4166 41.8166 76.8615V73.4742L44.2118 75.8694C45.3115 76.969 47.0944 76.969 48.194 75.8694C49.2936 74.7697 49.2936 72.9868 48.194 71.8872L45.7989 69.4921H49.1862C50.7413 69.4921 52.002 68.2314 52.002 66.6763C52.002 65.1212 50.7413 63.8605 49.1862 63.8605H45.7988L48.1939 61.4653C49.2936 60.3657 49.2936 58.5828 48.1939 57.4832C47.0943 56.3835 45.3114 56.3835 44.2118 57.4832L41.8166 59.8783V56.4911Z" fill="url(#paint0_linear_203_1080)"/>
<path fill-rule="evenodd" clip-rule="evenodd" d="M76.2649 50.9144C76.2649 49.1255 74.8147 47.6753 73.0258 47.6753C71.2369 47.6753 69.7868 49.1255 69.7868 50.9144V54.8542L67.0009 52.0684C65.736 50.8034 63.6851 50.8034 62.4202 52.0684C61.1553 53.3333 61.1553 55.3841 62.4202 56.6491L65.2063 59.4352H61.2662C59.4773 59.4352 58.0271 60.8854 58.0271 62.6743C58.0271 64.4631 59.4773 65.9133 61.2662 65.9133H65.206L62.4199 68.6994C61.155 69.9643 61.155 72.0152 62.4199 73.2801C63.6849 74.5451 65.7357 74.5451 67.0006 73.2801L69.7868 70.494V74.4342C69.7868 76.2231 71.2369 77.6733 73.0258 77.6733C74.8147 77.6733 76.2649 76.2231 76.2649 74.4342V70.4938L79.0513 73.2801C80.3162 74.5451 82.3671 74.5451 83.632 73.2801C84.8969 72.0152 84.8969 69.9643 83.632 68.6994L80.8459 65.9133H84.786C86.5749 65.9133 88.0251 64.4631 88.0251 62.6743C88.0251 60.8854 86.5749 59.4352 84.786 59.4352H80.8456L83.6317 56.6491C84.8966 55.3841 84.8966 53.3333 83.6317 52.0684C82.3668 50.8034 80.3159 50.8034 79.051 52.0684L76.2649 54.8544V50.9144Z" fill="url(#paint1_linear_203_1080)"/>
<path fill-rule="evenodd" clip-rule="evenodd" d="M63.3741 84.0505C63.3741 82.7387 62.3106 81.6753 60.9988 81.6753C59.687 81.6753 58.6235 82.7387 58.6235 84.0505V86.9397L56.5806 84.8968C55.653 83.9692 54.1491 83.9692 53.2215 84.8968C52.2939 85.8244 52.2939 87.3283 53.2215 88.2559L55.2646 90.299H52.3753C51.0634 90.299 50 91.3625 50 92.6743C50 93.9861 51.0634 95.0495 52.3753 95.0495H55.2644L53.2213 97.0926C52.2937 98.0202 52.2937 99.5241 53.2213 100.452C54.1489 101.379 55.6529 101.379 56.5804 100.452L58.6235 98.4086V101.298C58.6235 102.61 59.687 103.673 60.9988 103.673C62.3106 103.673 63.3741 102.61 63.3741 101.298V98.4084L65.4173 100.452C66.3449 101.379 67.8489 101.379 68.7765 100.452C69.7041 99.5241 69.7041 98.0202 68.7765 97.0926L66.7334 95.0495H69.6227C70.9346 95.0495 71.998 93.9861 71.998 92.6743C71.998 91.3625 70.9346 90.299 69.6227 90.299H66.7332L68.7763 88.2559C69.7039 87.3283 69.7039 85.8244 68.7763 84.8968C67.8487 83.9692 66.3447 83.9692 65.4171 84.8968L63.3741 86.9399V84.0505Z" fill="url(#paint2_linear_203_1080)"/>
<g filter="url(#filter1_bi_203_1080)">
<path fill-rule="evenodd" clip-rule="evenodd" d="M77 30.6753C77 31.4635 76.9696 32.2446 76.9099 33.0175C80.1949 30.3049 84.4071 28.6753 89 28.6753C99.4934 28.6753 108 37.1819 108 47.6753C108 57.8333 100.029 66.1294 90 66.6494V66.6753H89H19H17V66.5713C7.44667 65.5719 0 57.4932 0 47.6753C0 37.837 7.47752 29.7453 17.0593 28.7732C18.0405 13.0909 31.0704 0.675293 47 0.675293C63.5685 0.675293 77 14.1068 77 30.6753Z" fill="url(#paint3_linear_203_1080)"/>
</g>
<path fill-rule="evenodd" clip-rule="evenodd" d="M52.0021 66.6753H26.0001C26.0007 65.1206 27.2611 63.8605 28.8159 63.8605H32.2031L29.8079 61.4653C28.7083 60.3657 28.7083 58.5828 29.8079 57.4832C30.9076 56.3835 32.6904 56.3835 33.7901 57.4832L36.1851 59.8782V56.4911C36.1851 54.936 37.4458 53.6753 39.0009 53.6753C40.5561 53.6753 41.8168 54.936 41.8168 56.4911V59.8783L44.2119 57.4832C45.3115 56.3835 47.0944 56.3835 48.194 57.4832C49.2937 58.5828 49.2937 60.3657 48.194 61.4653L45.7989 63.8605H49.1863C50.7411 63.8605 52.0016 65.1206 52.0021 66.6753Z" fill="#E0F3FE"/>
<defs>
<filter id="filter0_f_203_1080" x="0" y="36.6753" width="107" height="63" filterUnits="userSpaceOnUse" color-interpolation-filters="sRGB">
<feFlood flood-opacity="0" result="BackgroundImageFix"/>
<feBlend mode="normal" in="SourceGraphic" in2="BackgroundImageFix" result="shape"/>
<feGaussianBlur stdDeviation="11" result="effect1_foregroundBlur_203_1080"/>
</filter>
<filter id="filter1_bi_203_1080" x="-7" y="-6.32471" width="122" height="80" filterUnits="userSpaceOnUse" color-interpolation-filters="sRGB">
<feFlood flood-opacity="0" result="BackgroundImageFix"/>
<feGaussianBlur in="BackgroundImageFix" stdDeviation="3.5"/>
<feComposite in2="SourceAlpha" operator="in" result="effect1_backgroundBlur_203_1080"/>
<feBlend mode="normal" in="SourceGraphic" in2="effect1_backgroundBlur_203_1080" result="shape"/>
<feColorMatrix in="SourceAlpha" type="matrix" values="0 0 0 0 0 0 0 0 0 0 0 0 0 0 0 0 0 0 127 0" result="hardAlpha"/>
<feOffset dy="2"/>
<feGaussianBlur stdDeviation="4"/>
<feComposite in2="hardAlpha" operator="arithmetic" k2="-1" k3="1"/>
<feColorMatrix type="matrix" values="0 0 0 0 0 0 0 0 0 0.82 0 0 0 0 1 0 0 0 0.25 0"/>
<feBlend mode="normal" in2="shape" result="effect2_innerShadow_203_1080"/>
</filter>
<linearGradient id="paint0_linear_203_1080" x1="29.7119" y1="74.415" x2="54.4073" y2="53.5711" gradientUnits="userSpaceOnUse">
<stop stop-color="#0056D6"/>
<stop offset="1" stop-color="#ADD8FF"/>
</linearGradient>
<linearGradient id="paint1_linear_203_1080" x1="62.3094" y1="71.6023" x2="90.8" y2="47.5551" gradientUnits="userSpaceOnUse">
<stop stop-color="#0056D6"/>
<stop offset="1" stop-color="#ADD8FF"/>
</linearGradient>
<linearGradient id="paint2_linear_203_1080" x1="53.1403" y1="99.2213" x2="74.0329" y2="81.5872" gradientUnits="userSpaceOnUse">
<stop stop-color="#0056D6"/>
<stop offset="1" stop-color="#ADD8FF"/>
</linearGradient>
<linearGradient id="paint3_linear_203_1080" x1="56" y1="90.1753" x2="96.5" y2="0.675293" gradientUnits="userSpaceOnUse">
<stop stop-color="#0082DF"/>
<stop offset="0.299998" stop-color="#48B2FF" stop-opacity="0.75"/>
<stop offset="1" stop-color="#3BADFF" stop-opacity="0"/>
</linearGradient>
</defs>
</svg>
