<svg width="134" height="105" viewBox="0 0 134 105" fill="none" xmlns="http://www.w3.org/2000/svg">
<g filter="url(#filter0_bi_203_659)">
<mask id="path-1-inside-1_203_659" fill="white">
<path fill-rule="evenodd" clip-rule="evenodd" d="M113.046 21.2675C113.046 21.8004 113.025 22.3284 112.985 22.8509C115.206 21.0173 118.053 19.9157 121.157 19.9157C128.25 19.9157 134 25.6655 134 32.7583C134 39.6244 128.612 45.232 121.833 45.5834V45.6009H72.4905V45.5305C66.0333 44.8549 61 39.3944 61 32.7583C61 26.1084 66.0541 20.639 72.5306 19.9819C73.1938 9.38177 82.001 0.989746 92.7683 0.989746C103.967 0.989746 113.046 10.0684 113.046 21.2675Z"/>
</mask>
<path fill-rule="evenodd" clip-rule="evenodd" d="M113.046 21.2675C113.046 21.8004 113.025 22.3284 112.985 22.8509C115.206 21.0173 118.053 19.9157 121.157 19.9157C128.25 19.9157 134 25.6655 134 32.7583C134 39.6244 128.612 45.232 121.833 45.5834V45.6009H72.4905V45.5305C66.0333 44.8549 61 39.3944 61 32.7583C61 26.1084 66.0541 20.639 72.5306 19.9819C73.1938 9.38177 82.001 0.989746 92.7683 0.989746C103.967 0.989746 113.046 10.0684 113.046 21.2675Z" fill="url(#paint0_linear_203_659)"/>
<path d="M112.985 22.8509L111.988 22.7739L111.807 25.1209L113.622 23.622L112.985 22.8509ZM121.833 45.5834L121.781 44.5847L120.833 44.6339V45.5834H121.833ZM121.833 45.6009V46.6009H122.833V45.6009H121.833ZM72.4905 45.6009H71.4905V46.6009H72.4905V45.6009ZM72.4905 45.5305H73.4905V44.6297L72.5945 44.536L72.4905 45.5305ZM72.5306 19.9819L72.6315 20.9768L73.4756 20.8911L73.5286 20.0443L72.5306 19.9819ZM113.982 22.928C114.024 22.3799 114.046 21.8261 114.046 21.2675H112.046C112.046 21.7747 112.026 22.277 111.988 22.7739L113.982 22.928ZM121.157 18.9157C117.812 18.9157 114.741 20.1037 112.348 22.0799L113.622 23.622C115.67 21.9309 118.294 20.9157 121.157 20.9157V18.9157ZM135 32.7583C135 25.1132 128.802 18.9157 121.157 18.9157V20.9157C127.698 20.9157 133 26.2178 133 32.7583H135ZM121.885 46.582C129.192 46.2033 135 40.1593 135 32.7583H133C133 39.0894 128.031 44.2608 121.781 44.5847L121.885 46.582ZM120.833 45.5834V45.6009H122.833V45.5834H120.833ZM121.833 44.6009H72.4905V46.6009H121.833V44.6009ZM73.4905 45.6009V45.5305H71.4905V45.6009H73.4905ZM60 32.7583C60 39.9117 65.4253 45.7967 72.3864 46.5251L72.5945 44.536C66.6412 43.913 62 38.877 62 32.7583H60ZM72.4296 18.987C65.4478 19.6954 60 25.59 60 32.7583H62C62 26.6268 66.6604 21.5827 72.6315 20.9768L72.4296 18.987ZM92.7683 -0.0102539C81.4696 -0.0102539 72.2285 8.79564 71.5325 19.9194L73.5286 20.0443C74.1591 9.96789 82.5324 1.98975 92.7683 1.98975V-0.0102539ZM114.046 21.2675C114.046 9.51613 104.52 -0.0102539 92.7683 -0.0102539V1.98975C103.415 1.98975 112.046 10.6207 112.046 21.2675H114.046Z" fill="url(#paint1_linear_203_659)" fill-opacity="0.3" mask="url(#path-1-inside-1_203_659)"/>
</g>
<g filter="url(#filter1_f_203_659)">
<ellipse cx="53.5" cy="73.4897" rx="31.5" ry="9.5" fill="#4DB4FF"/>
</g>
<g filter="url(#filter2_bi_203_659)">
<path fill-rule="evenodd" clip-rule="evenodd" d="M77 35.9897C77 36.778 76.9696 37.5591 76.9099 38.332C80.1949 35.6194 84.4071 33.9897 89 33.9897C99.4934 33.9897 108 42.4963 108 52.9897C108 63.1477 100.029 71.4439 90 71.9639V71.9897H89H19H17V71.8857C7.44667 70.8863 0 62.8077 0 52.9897C0 43.1515 7.47752 35.0597 17.0593 34.0876C18.0405 18.4053 31.0704 5.98975 47 5.98975C63.5685 5.98975 77 19.4212 77 35.9897Z" fill="url(#paint2_linear_203_659)"/>
</g>
<path fill-rule="evenodd" clip-rule="evenodd" d="M27.3256 84.5675C27.732 84.8442 28.2092 84.9911 28.6969 84.9897C29.1384 84.9928 29.573 84.8775 29.9578 84.6554C30.3426 84.4333 30.6643 84.1119 30.891 83.7231L58.9342 37.0014C59.293 36.4029 59.4079 35.6835 59.254 34.9988C59.1 34.3141 58.6895 33.7191 58.1114 33.3425C57.5157 32.9985 56.8144 32.9016 56.1513 33.0717C55.4882 33.2418 54.9138 33.666 54.546 34.2572L26.5028 80.9086C26.3159 81.2022 26.1887 81.5315 26.1289 81.8768C26.0691 82.2221 26.0778 82.5762 26.1547 82.9179C26.2315 83.2596 26.3748 83.5819 26.5761 83.8654C26.7773 84.1488 27.0322 84.3876 27.3256 84.5675ZM8.60718 84.9897C8.11947 84.9911 7.64229 84.8442 7.23587 84.5675C6.9425 84.3876 6.68756 84.1488 6.48636 83.8654C6.28515 83.5819 6.14182 83.2596 6.06498 82.9179C5.98814 82.5762 5.97934 82.2221 6.03916 81.8768C6.09898 81.5315 6.22618 81.2022 6.41308 80.9086L26.5027 47.9782C26.678 47.6771 26.9107 47.4155 27.1869 47.209C27.4631 47.0026 27.7771 46.8555 28.1101 46.7766C28.4431 46.6978 28.7882 46.6888 29.1247 46.7501C29.4611 46.8115 29.782 46.942 30.0681 47.1338C30.6463 47.5104 31.0567 48.1054 31.2107 48.7901C31.3646 49.4749 31.2498 50.1943 30.8909 50.7928L10.8012 83.7231C10.5745 84.1119 10.2529 84.4333 9.86808 84.6554C9.48328 84.8775 9.04867 84.9928 8.60718 84.9897ZM50.2263 84.9897C49.7386 84.9911 49.2614 84.8442 48.855 84.5675C48.5616 84.3877 48.3067 84.1488 48.1055 83.8654C47.9043 83.5819 47.761 83.2596 47.6841 82.9179C47.6073 82.5762 47.5985 82.2221 47.6583 81.8768C47.7181 81.5315 47.8453 81.2022 48.0322 80.9086L62.2252 57.5477C62.5921 56.9544 63.172 56.5332 63.8392 56.3752C64.5064 56.2172 65.2074 56.3351 65.7906 56.7034C66.3688 57.0799 66.7792 57.6749 66.9332 58.3597C67.0872 59.0444 66.9723 59.7638 66.6134 60.3623L52.4204 83.7232C52.1887 84.1073 51.866 84.4249 51.4823 84.6464C51.0986 84.8679 50.6665 84.986 50.2263 84.9897Z" fill="url(#paint3_linear_203_659)"/>
<path fill-rule="evenodd" clip-rule="evenodd" d="M17.9594 71.9897H17.0001V71.8857C15.4508 71.7237 13.9569 71.3754 12.5411 70.8637L26.5028 47.9782C26.678 47.6771 26.9107 47.4155 27.1869 47.209C27.4632 47.0026 27.7772 46.8555 28.1102 46.7766C28.4432 46.6978 28.7883 46.6888 29.1247 46.7501C29.4612 46.8115 29.7821 46.942 30.0682 47.1338C30.6463 47.5104 31.0567 48.1054 31.2107 48.7901C31.3647 49.4749 31.2498 50.1943 30.891 50.7928L17.9594 71.9897ZM31.8642 71.9897L54.5461 34.2572C54.9139 33.666 55.4883 33.2418 56.1513 33.0717C56.8144 32.9016 57.5158 32.9985 58.1114 33.3425C58.6896 33.7191 59.1 34.3141 59.254 34.9988C59.408 35.6835 59.2931 36.4029 58.9342 37.0014L37.9336 71.9897H31.8642ZM59.5491 71.9897H53.451L62.2253 57.5477C62.5922 56.9544 63.172 56.5332 63.8392 56.3752C64.5065 56.2172 65.2075 56.3351 65.7907 56.7034C66.3688 57.0799 66.7793 57.6749 66.9333 58.3597C67.0872 59.0444 66.9723 59.7638 66.6135 60.3623L59.5491 71.9897Z" fill="#E0F3FE"/>
<defs>
<filter id="filter0_bi_203_659" x="54" y="-6.01025" width="87" height="58.6111" filterUnits="userSpaceOnUse" color-interpolation-filters="sRGB">
<feFlood flood-opacity="0" result="BackgroundImageFix"/>
<feGaussianBlur in="BackgroundImageFix" stdDeviation="3.5"/>
<feComposite in2="SourceAlpha" operator="in" result="effect1_backgroundBlur_203_659"/>
<feBlend mode="normal" in="SourceGraphic" in2="effect1_backgroundBlur_203_659" result="shape"/>
<feColorMatrix in="SourceAlpha" type="matrix" values="0 0 0 0 0 0 0 0 0 0 0 0 0 0 0 0 0 0 127 0" result="hardAlpha"/>
<feOffset dy="2"/>
<feGaussianBlur stdDeviation="4"/>
<feComposite in2="hardAlpha" operator="arithmetic" k2="-1" k3="1"/>
<feColorMatrix type="matrix" values="0 0 0 0 0 0 0 0 0 0.82 0 0 0 0 1 0 0 0 0.25 0"/>
<feBlend mode="normal" in2="shape" result="effect2_innerShadow_203_659"/>
</filter>
<filter id="filter1_f_203_659" x="0" y="41.9897" width="107" height="63" filterUnits="userSpaceOnUse" color-interpolation-filters="sRGB">
<feFlood flood-opacity="0" result="BackgroundImageFix"/>
<feBlend mode="normal" in="SourceGraphic" in2="BackgroundImageFix" result="shape"/>
<feGaussianBlur stdDeviation="11" result="effect1_foregroundBlur_203_659"/>
</filter>
<filter id="filter2_bi_203_659" x="-7" y="-1.01025" width="122" height="80" filterUnits="userSpaceOnUse" color-interpolation-filters="sRGB">
<feFlood flood-opacity="0" result="BackgroundImageFix"/>
<feGaussianBlur in="BackgroundImageFix" stdDeviation="3.5"/>
<feComposite in2="SourceAlpha" operator="in" result="effect1_backgroundBlur_203_659"/>
<feBlend mode="normal" in="SourceGraphic" in2="effect1_backgroundBlur_203_659" result="shape"/>
<feColorMatrix in="SourceAlpha" type="matrix" values="0 0 0 0 0 0 0 0 0 0 0 0 0 0 0 0 0 0 127 0" result="hardAlpha"/>
<feOffset dy="2"/>
<feGaussianBlur stdDeviation="4"/>
<feComposite in2="hardAlpha" operator="arithmetic" k2="-1" k3="1"/>
<feColorMatrix type="matrix" values="0 0 0 0 0 0 0 0 0 0.82 0 0 0 0 1 0 0 0 0.25 0"/>
<feBlend mode="normal" in2="shape" result="effect2_innerShadow_203_659"/>
</filter>
<linearGradient id="paint0_linear_203_659" x1="79.5" y1="55.4897" x2="159.5" y2="-25.0103" gradientUnits="userSpaceOnUse">
<stop stop-color="#0082DF"/>
<stop offset="0.8818" stop-color="#3BADFF" stop-opacity="0"/>
</linearGradient>
<linearGradient id="paint1_linear_203_659" x1="79" y1="-2.01026" x2="129" y2="53.4897" gradientUnits="userSpaceOnUse">
<stop stop-color="#0699D7"/>
<stop offset="1" stop-color="#0699D7" stop-opacity="0"/>
</linearGradient>
<linearGradient id="paint2_linear_203_659" x1="56" y1="95.4897" x2="96.5" y2="5.98975" gradientUnits="userSpaceOnUse">
<stop stop-color="#0082DF"/>
<stop offset="0.299998" stop-color="#48B2FF" stop-opacity="0.75"/>
<stop offset="1" stop-color="#3BADFF" stop-opacity="0"/>
</linearGradient>
<linearGradient id="paint3_linear_203_659" x1="36.5" y1="32.9897" x2="36.5" y2="84.9897" gradientUnits="userSpaceOnUse">
<stop stop-color="#D7F0FF"/>
<stop offset="1" stop-color="#0072DC"/>
</linearGradient>
</defs>
</svg>
