<svg width="108" height="104" viewBox="0 0 108 104" fill="none" xmlns="http://www.w3.org/2000/svg">
<g filter="url(#filter0_f_203_960)">
<ellipse cx="53.5" cy="67.9565" rx="31.5" ry="9.5" fill="#4DB4FF"/>
</g>
<path fill-rule="evenodd" clip-rule="evenodd" d="M41.8166 56.2724C41.8166 54.7172 40.556 53.4565 39.0008 53.4565C37.4457 53.4565 36.185 54.7172 36.185 56.2723V59.6595L33.79 57.2644C32.6903 56.1648 30.9074 56.1648 29.8078 57.2644C28.7082 58.3641 28.7082 60.1469 29.8078 61.2466L32.203 63.6417H28.8158C27.2607 63.6417 26 64.9024 26 66.4575C26 68.0127 27.2607 69.2733 28.8158 69.2733H32.2028L29.8077 71.6685C28.7081 72.7681 28.7081 74.551 29.8077 75.6506C30.9074 76.7502 32.6902 76.7502 33.7899 75.6506L36.185 73.2555V76.6427C36.185 78.1979 37.4457 79.4585 39.0008 79.4585C40.556 79.4585 41.8166 78.1979 41.8166 76.6427V73.2554L44.2118 75.6506C45.3115 76.7502 47.0944 76.7502 48.194 75.6506C49.2936 74.551 49.2936 72.7681 48.194 71.6685L45.7989 69.2733H49.1862C50.7413 69.2733 52.002 68.0127 52.002 66.4575C52.002 64.9024 50.7413 63.6417 49.1862 63.6417H45.7988L48.1939 61.2466C49.2936 60.1469 49.2936 58.3641 48.1939 57.2644C47.0943 56.1648 45.3114 56.1648 44.2118 57.2644L41.8166 59.6595V56.2724Z" fill="url(#paint0_linear_203_960)"/>
<path fill-rule="evenodd" clip-rule="evenodd" d="M76.2649 50.6956C76.2649 48.9067 74.8147 47.4565 73.0258 47.4565C71.2369 47.4565 69.7868 48.9067 69.7868 50.6956V54.6354L67.0009 51.8496C65.736 50.5847 63.6851 50.5847 62.4202 51.8496C61.1553 53.1145 61.1553 55.1654 62.4202 56.4303L65.2063 59.2164H61.2662C59.4773 59.2164 58.0271 60.6666 58.0271 62.4555C58.0271 64.2444 59.4773 65.6946 61.2662 65.6946H65.206L62.4199 68.4807C61.155 69.7456 61.155 71.7965 62.4199 73.0614C63.6849 74.3263 65.7357 74.3263 67.0006 73.0614L69.7868 70.2753V74.2155C69.7868 76.0044 71.2369 77.4545 73.0258 77.4545C74.8147 77.4545 76.2649 76.0044 76.2649 74.2155V70.275L79.0513 73.0614C80.3162 74.3263 82.3671 74.3263 83.632 73.0614C84.8969 71.7965 84.8969 69.7456 83.632 68.4807L80.8459 65.6946H84.786C86.5749 65.6946 88.0251 64.2444 88.0251 62.4555C88.0251 60.6666 86.5749 59.2164 84.786 59.2164H80.8456L83.6317 56.4303C84.8966 55.1654 84.8966 53.1145 83.6317 51.8496C82.3668 50.5847 80.3159 50.5847 79.051 51.8496L76.2649 54.6357V50.6956Z" fill="url(#paint1_linear_203_960)"/>
<path fill-rule="evenodd" clip-rule="evenodd" d="M63.3741 83.8318C63.3741 82.52 62.3106 81.4565 60.9988 81.4565C59.687 81.4565 58.6235 82.52 58.6235 83.8318V86.7209L56.5806 84.678C55.653 83.7504 54.1491 83.7504 53.2215 84.678C52.2939 85.6056 52.2939 87.1096 53.2215 88.0372L55.2646 90.0803H52.3753C51.0634 90.0803 50 91.1437 50 92.4555C50 93.7673 51.0634 94.8308 52.3753 94.8308H55.2644L53.2213 96.8739C52.2937 97.8015 52.2937 99.3054 53.2213 100.233C54.1489 101.161 55.6529 101.161 56.5804 100.233L58.6235 98.1899V101.079C58.6235 102.391 59.687 103.455 60.9988 103.455C62.3106 103.455 63.3741 102.391 63.3741 101.079V98.1897L65.4173 100.233C66.3449 101.161 67.8489 101.161 68.7765 100.233C69.7041 99.3054 69.7041 97.8015 68.7765 96.8739L66.7334 94.8308H69.6227C70.9346 94.8308 71.998 93.7673 71.998 92.4555C71.998 91.1437 70.9346 90.0803 69.6227 90.0803H66.7332L68.7763 88.0372C69.7039 87.1096 69.7039 85.6056 68.7763 84.678C67.8487 83.7504 66.3447 83.7504 65.4171 84.678L63.3741 86.7211V83.8318Z" fill="url(#paint2_linear_203_960)"/>
<g filter="url(#filter1_bi_203_960)">
<path fill-rule="evenodd" clip-rule="evenodd" d="M77 30.4565C77 31.2448 76.9696 32.0259 76.9099 32.7988C80.1949 30.0862 84.4071 28.4565 89 28.4565C99.4934 28.4565 108 36.9631 108 47.4565C108 57.6145 100.029 65.9107 90 66.4307V66.4565H89H19H17V66.3525C7.44667 65.3531 0 57.2745 0 47.4565C0 37.6183 7.47752 29.5265 17.0593 28.5544C18.0405 12.8721 31.0704 0.456543 47 0.456543C63.5685 0.456543 77 13.888 77 30.4565Z" fill="url(#paint3_linear_203_960)"/>
</g>
<path fill-rule="evenodd" clip-rule="evenodd" d="M52.0021 66.4565H26.0001C26.0007 64.9019 27.2611 63.6417 28.8159 63.6417H32.2031L29.8079 61.2466C28.7083 60.1469 28.7083 58.3641 29.8079 57.2644C30.9076 56.1648 32.6904 56.1648 33.7901 57.2644L36.1851 59.6595V56.2723C36.1851 54.7172 37.4458 53.4565 39.0009 53.4565C40.5561 53.4565 41.8168 54.7172 41.8168 56.2724V59.6595L44.2119 57.2644C45.3115 56.1648 47.0944 56.1648 48.194 57.2644C49.2937 58.3641 49.2937 60.1469 48.194 61.2466L45.7989 63.6417H49.1863C50.7411 63.6417 52.0016 64.9019 52.0021 66.4565Z" fill="#E0F3FE"/>
<defs>
<filter id="filter0_f_203_960" x="0" y="36.4565" width="107" height="63" filterUnits="userSpaceOnUse" color-interpolation-filters="sRGB">
<feFlood flood-opacity="0" result="BackgroundImageFix"/>
<feBlend mode="normal" in="SourceGraphic" in2="BackgroundImageFix" result="shape"/>
<feGaussianBlur stdDeviation="11" result="effect1_foregroundBlur_203_960"/>
</filter>
<filter id="filter1_bi_203_960" x="-7" y="-6.54346" width="122" height="80" filterUnits="userSpaceOnUse" color-interpolation-filters="sRGB">
<feFlood flood-opacity="0" result="BackgroundImageFix"/>
<feGaussianBlur in="BackgroundImageFix" stdDeviation="3.5"/>
<feComposite in2="SourceAlpha" operator="in" result="effect1_backgroundBlur_203_960"/>
<feBlend mode="normal" in="SourceGraphic" in2="effect1_backgroundBlur_203_960" result="shape"/>
<feColorMatrix in="SourceAlpha" type="matrix" values="0 0 0 0 0 0 0 0 0 0 0 0 0 0 0 0 0 0 127 0" result="hardAlpha"/>
<feOffset dy="2"/>
<feGaussianBlur stdDeviation="4"/>
<feComposite in2="hardAlpha" operator="arithmetic" k2="-1" k3="1"/>
<feColorMatrix type="matrix" values="0 0 0 0 0 0 0 0 0 0.82 0 0 0 0 1 0 0 0 0.25 0"/>
<feBlend mode="normal" in2="shape" result="effect2_innerShadow_203_960"/>
</filter>
<linearGradient id="paint0_linear_203_960" x1="29.7119" y1="74.1962" x2="54.4073" y2="53.3524" gradientUnits="userSpaceOnUse">
<stop stop-color="#0056D6"/>
<stop offset="1" stop-color="#ADD8FF"/>
</linearGradient>
<linearGradient id="paint1_linear_203_960" x1="62.3094" y1="71.3835" x2="90.8" y2="47.3364" gradientUnits="userSpaceOnUse">
<stop stop-color="#0056D6"/>
<stop offset="1" stop-color="#ADD8FF"/>
</linearGradient>
<linearGradient id="paint2_linear_203_960" x1="53.1403" y1="99.0026" x2="74.0329" y2="81.3684" gradientUnits="userSpaceOnUse">
<stop stop-color="#0056D6"/>
<stop offset="1" stop-color="#ADD8FF"/>
</linearGradient>
<linearGradient id="paint3_linear_203_960" x1="56" y1="89.9565" x2="96.5" y2="0.456543" gradientUnits="userSpaceOnUse">
<stop stop-color="#0082DF"/>
<stop offset="0.299998" stop-color="#48B2FF" stop-opacity="0.75"/>
<stop offset="1" stop-color="#3BADFF" stop-opacity="0"/>
</linearGradient>
</defs>
</svg>
