<svg width="108" height="100" viewBox="0 0 108 100" fill="none" xmlns="http://www.w3.org/2000/svg">
<g filter="url(#filter0_f_203_556)">
<ellipse cx="53.5" cy="67.6182" rx="31.5" ry="9.5" fill="#4DB4FF"/>
</g>
<g filter="url(#filter1_bi_203_556)">
<path fill-rule="evenodd" clip-rule="evenodd" d="M77 30.1182C77 30.9064 76.9696 31.6875 76.9099 32.4604C80.1949 29.7478 84.4071 28.1182 89 28.1182C99.4934 28.1182 108 36.6248 108 47.1182C108 57.2761 100.029 65.5723 90 66.0923V66.1182H89H19H17V66.0142C7.44667 65.0148 0 56.9361 0 47.1182C0 37.2799 7.47752 29.1881 17.0593 28.2161C18.0405 12.5337 31.0704 0.118164 47 0.118164C63.5685 0.118164 77 13.5496 77 30.1182Z" fill="url(#paint0_linear_203_556)"/>
</g>
<path fill-rule="evenodd" clip-rule="evenodd" d="M33.2648 52.7505C33.2648 54.7566 31.6385 56.3829 29.6324 56.3829C27.6263 56.3829 26 54.7566 26 52.7505C26 50.7444 27.6263 49.1182 29.6324 49.1182C31.6385 49.1182 33.2648 50.7444 33.2648 52.7505ZM33.2648 66.0153C33.2648 68.0214 31.6385 69.6477 29.6324 69.6477C27.6263 69.6477 26 68.0214 26 66.0153C26 64.0092 27.6263 62.3829 29.6324 62.3829C31.6385 62.3829 33.2648 64.0092 33.2648 66.0153ZM29.6324 82.9124C31.6385 82.9124 33.2648 81.2861 33.2648 79.28C33.2648 77.2739 31.6385 75.6477 29.6324 75.6477C27.6263 75.6477 26 77.2739 26 79.28C26 81.2861 27.6263 82.9124 29.6324 82.9124ZM33.2648 92.5448C33.2648 94.5509 31.6385 96.1772 29.6324 96.1772C27.6263 96.1772 26 94.5509 26 92.5448C26 90.5387 27.6263 88.9124 29.6324 88.9124C31.6385 88.9124 33.2648 90.5387 33.2648 92.5448ZM45.897 56.3829C47.9032 56.3829 49.5294 54.7566 49.5294 52.7505C49.5294 50.7444 47.9032 49.1182 45.897 49.1182C43.8909 49.1182 42.2646 50.7444 42.2646 52.7505C42.2646 54.7566 43.8909 56.3829 45.897 56.3829ZM49.5294 66.0153C49.5294 68.0214 47.9032 69.6477 45.897 69.6477C43.8909 69.6477 42.2646 68.0214 42.2646 66.0153C42.2646 64.0092 43.8909 62.3829 45.897 62.3829C47.9032 62.3829 49.5294 64.0092 49.5294 66.0153ZM45.897 82.9124C47.9032 82.9124 49.5294 81.2861 49.5294 79.28C49.5294 77.2739 47.9032 75.6477 45.897 75.6477C43.8909 75.6477 42.2646 77.2739 42.2646 79.28C42.2646 81.2861 43.8909 82.9124 45.897 82.9124ZM49.5294 92.5448C49.5294 94.5509 47.9032 96.1772 45.897 96.1772C43.8909 96.1772 42.2646 94.5509 42.2646 92.5448C42.2646 90.5387 43.8909 88.9124 45.897 88.9124C47.9032 88.9124 49.5294 90.5387 49.5294 92.5448ZM62.1619 56.3829C64.168 56.3829 65.7943 54.7566 65.7943 52.7505C65.7943 50.7444 64.168 49.1182 62.1619 49.1182C60.1558 49.1182 58.5295 50.7444 58.5295 52.7505C58.5295 54.7566 60.1558 56.3829 62.1619 56.3829ZM65.7943 66.0153C65.7943 68.0214 64.168 69.6477 62.1619 69.6477C60.1558 69.6477 58.5295 68.0214 58.5295 66.0153C58.5295 64.0092 60.1558 62.3829 62.1619 62.3829C64.168 62.3829 65.7943 64.0092 65.7943 66.0153ZM62.1619 82.9124C64.168 82.9124 65.7943 81.2861 65.7943 79.28C65.7943 77.2739 64.168 75.6477 62.1619 75.6477C60.1558 75.6477 58.5295 77.2739 58.5295 79.28C58.5295 81.2861 60.1558 82.9124 62.1619 82.9124ZM65.7943 92.5448C65.7943 94.5509 64.168 96.1772 62.1619 96.1772C60.1558 96.1772 58.5295 94.5509 58.5295 92.5448C58.5295 90.5387 60.1558 88.9124 62.1619 88.9124C64.168 88.9124 65.7943 90.5387 65.7943 92.5448ZM78.4267 56.3829C80.4328 56.3829 82.0591 54.7566 82.0591 52.7505C82.0591 50.7444 80.4328 49.1182 78.4267 49.1182C76.4206 49.1182 74.7943 50.7444 74.7943 52.7505C74.7943 54.7566 76.4206 56.3829 78.4267 56.3829ZM82.0591 66.0153C82.0591 68.0214 80.4328 69.6477 78.4267 69.6477C76.4206 69.6477 74.7943 68.0214 74.7943 66.0153C74.7943 64.0092 76.4206 62.3829 78.4267 62.3829C80.4328 62.3829 82.0591 64.0092 82.0591 66.0153ZM78.4267 82.9124C80.4328 82.9124 82.0591 81.2861 82.0591 79.28C82.0591 77.2739 80.4328 75.6477 78.4267 75.6477C76.4206 75.6477 74.7943 77.2739 74.7943 79.28C74.7943 81.2861 76.4206 82.9124 78.4267 82.9124ZM82.0591 92.5448C82.0591 94.5509 80.4328 96.1772 78.4267 96.1772C76.4206 96.1772 74.7943 94.5509 74.7943 92.5448C74.7943 90.5387 76.4206 88.9124 78.4267 88.9124C80.4328 88.9124 82.0591 90.5387 82.0591 92.5448Z" fill="url(#paint1_linear_203_556)"/>
<path fill-rule="evenodd" clip-rule="evenodd" d="M33.2633 66.1182H26.0014C26.0005 66.084 26 66.0497 26 66.0153C26 64.0092 27.6263 62.3829 29.6324 62.3829C31.6385 62.3829 33.2648 64.0092 33.2648 66.0153C33.2648 66.0497 33.2643 66.084 33.2633 66.1182ZM49.528 66.1182H42.2661C42.2651 66.084 42.2646 66.0497 42.2646 66.0153C42.2646 64.0092 43.8909 62.3829 45.897 62.3829C47.9032 62.3829 49.5294 64.0092 49.5294 66.0153C49.5294 66.0497 49.5289 66.084 49.528 66.1182ZM65.7929 66.1182H58.531C58.53 66.084 58.5295 66.0497 58.5295 66.0153C58.5295 64.0092 60.1558 62.3829 62.1619 62.3829C64.168 62.3829 65.7943 64.0092 65.7943 66.0153C65.7943 66.0497 65.7938 66.084 65.7929 66.1182ZM82.0576 66.1182H74.7957C74.7948 66.084 74.7943 66.0497 74.7943 66.0153C74.7943 64.0092 76.4206 62.3829 78.4267 62.3829C80.4328 62.3829 82.0591 64.0092 82.0591 66.0153C82.0591 66.0497 82.0586 66.084 82.0576 66.1182ZM29.6324 56.3829C31.6385 56.3829 33.2648 54.7566 33.2648 52.7505C33.2648 50.7444 31.6385 49.1182 29.6324 49.1182C27.6263 49.1182 26 50.7444 26 52.7505C26 54.7566 27.6263 56.3829 29.6324 56.3829ZM49.5294 52.7505C49.5294 54.7566 47.9032 56.3829 45.897 56.3829C43.8909 56.3829 42.2646 54.7566 42.2646 52.7505C42.2646 50.7444 43.8909 49.1182 45.897 49.1182C47.9032 49.1182 49.5294 50.7444 49.5294 52.7505ZM65.7943 52.7505C65.7943 54.7566 64.168 56.3829 62.1619 56.3829C60.1558 56.3829 58.5295 54.7566 58.5295 52.7505C58.5295 50.7444 60.1558 49.1182 62.1619 49.1182C64.168 49.1182 65.7943 50.7444 65.7943 52.7505ZM82.0591 52.7505C82.0591 54.7566 80.4328 56.3829 78.4267 56.3829C76.4206 56.3829 74.7943 54.7566 74.7943 52.7505C74.7943 50.7444 76.4206 49.1182 78.4267 49.1182C80.4328 49.1182 82.0591 50.7444 82.0591 52.7505Z" fill="#E0F3FE"/>
<defs>
<filter id="filter0_f_203_556" x="0" y="36.1182" width="107" height="63" filterUnits="userSpaceOnUse" color-interpolation-filters="sRGB">
<feFlood flood-opacity="0" result="BackgroundImageFix"/>
<feBlend mode="normal" in="SourceGraphic" in2="BackgroundImageFix" result="shape"/>
<feGaussianBlur stdDeviation="11" result="effect1_foregroundBlur_203_556"/>
</filter>
<filter id="filter1_bi_203_556" x="-7" y="-6.88184" width="122" height="80" filterUnits="userSpaceOnUse" color-interpolation-filters="sRGB">
<feFlood flood-opacity="0" result="BackgroundImageFix"/>
<feGaussianBlur in="BackgroundImageFix" stdDeviation="3.5"/>
<feComposite in2="SourceAlpha" operator="in" result="effect1_backgroundBlur_203_556"/>
<feBlend mode="normal" in="SourceGraphic" in2="effect1_backgroundBlur_203_556" result="shape"/>
<feColorMatrix in="SourceAlpha" type="matrix" values="0 0 0 0 0 0 0 0 0 0 0 0 0 0 0 0 0 0 127 0" result="hardAlpha"/>
<feOffset dy="2"/>
<feGaussianBlur stdDeviation="4"/>
<feComposite in2="hardAlpha" operator="arithmetic" k2="-1" k3="1"/>
<feColorMatrix type="matrix" values="0 0 0 0 0 0 0 0 0 0.82 0 0 0 0 1 0 0 0 0.25 0"/>
<feBlend mode="normal" in2="shape" result="effect2_innerShadow_203_556"/>
</filter>
<linearGradient id="paint0_linear_203_556" x1="56" y1="89.6182" x2="96.5" y2="0.118164" gradientUnits="userSpaceOnUse">
<stop stop-color="#0082DF"/>
<stop offset="0.299998" stop-color="#48B2FF" stop-opacity="0.75"/>
<stop offset="1" stop-color="#3BADFF" stop-opacity="0"/>
</linearGradient>
<linearGradient id="paint1_linear_203_556" x1="54.0295" y1="49.1182" x2="54.0295" y2="96.1772" gradientUnits="userSpaceOnUse">
<stop stop-color="#D7F0FF"/>
<stop offset="1" stop-color="#0072DC"/>
</linearGradient>
</defs>
</svg>
