<svg width="108" height="100" viewBox="0 0 108 100" fill="none" xmlns="http://www.w3.org/2000/svg">
<g filter="url(#filter0_f_203_832)">
<ellipse cx="53.5" cy="68.4897" rx="31.5" ry="9.5" fill="#4DB4FF"/>
</g>
<g filter="url(#filter1_bi_203_832)">
<path fill-rule="evenodd" clip-rule="evenodd" d="M77 30.9897C77 31.778 76.9696 32.5591 76.9099 33.332C80.1949 30.6194 84.4071 28.9897 89 28.9897C99.4934 28.9897 108 37.4963 108 47.9897C108 58.1477 100.029 66.4439 90 66.9639V66.9897H89H19H17V66.8857C7.44667 65.8863 0 57.8077 0 47.9897C0 38.1515 7.47752 30.0597 17.0593 29.0876C18.0405 13.4053 31.0704 0.989746 47 0.989746C63.5685 0.989746 77 14.4212 77 30.9897Z" fill="url(#paint0_linear_203_832)"/>
</g>
<path fill-rule="evenodd" clip-rule="evenodd" d="M33.2648 53.6221C33.2648 55.6282 31.6385 57.2545 29.6324 57.2545C27.6263 57.2545 26 55.6282 26 53.6221C26 51.616 27.6263 49.9897 29.6324 49.9897C31.6385 49.9897 33.2648 51.616 33.2648 53.6221ZM33.2648 66.8869C33.2648 68.893 31.6385 70.5193 29.6324 70.5193C27.6263 70.5193 26 68.893 26 66.8869C26 64.8808 27.6263 63.2545 29.6324 63.2545C31.6385 63.2545 33.2648 64.8808 33.2648 66.8869ZM29.6324 83.784C31.6385 83.784 33.2648 82.1577 33.2648 80.1516C33.2648 78.1455 31.6385 76.5193 29.6324 76.5193C27.6263 76.5193 26 78.1455 26 80.1516C26 82.1577 27.6263 83.784 29.6324 83.784ZM33.2648 93.4164C33.2648 95.4225 31.6385 97.0487 29.6324 97.0487C27.6263 97.0487 26 95.4225 26 93.4164C26 91.4103 27.6263 89.784 29.6324 89.784C31.6385 89.784 33.2648 91.4103 33.2648 93.4164ZM45.897 57.2545C47.9032 57.2545 49.5294 55.6282 49.5294 53.6221C49.5294 51.616 47.9032 49.9897 45.897 49.9897C43.8909 49.9897 42.2646 51.616 42.2646 53.6221C42.2646 55.6282 43.8909 57.2545 45.897 57.2545ZM49.5294 66.8869C49.5294 68.893 47.9032 70.5193 45.897 70.5193C43.8909 70.5193 42.2646 68.893 42.2646 66.8869C42.2646 64.8808 43.8909 63.2545 45.897 63.2545C47.9032 63.2545 49.5294 64.8808 49.5294 66.8869ZM45.897 83.784C47.9032 83.784 49.5294 82.1577 49.5294 80.1516C49.5294 78.1455 47.9032 76.5193 45.897 76.5193C43.8909 76.5193 42.2646 78.1455 42.2646 80.1516C42.2646 82.1577 43.8909 83.784 45.897 83.784ZM49.5294 93.4164C49.5294 95.4225 47.9032 97.0487 45.897 97.0487C43.8909 97.0487 42.2646 95.4225 42.2646 93.4164C42.2646 91.4103 43.8909 89.784 45.897 89.784C47.9032 89.784 49.5294 91.4103 49.5294 93.4164ZM62.1619 57.2545C64.168 57.2545 65.7943 55.6282 65.7943 53.6221C65.7943 51.616 64.168 49.9897 62.1619 49.9897C60.1558 49.9897 58.5295 51.616 58.5295 53.6221C58.5295 55.6282 60.1558 57.2545 62.1619 57.2545ZM65.7943 66.8869C65.7943 68.893 64.168 70.5193 62.1619 70.5193C60.1558 70.5193 58.5295 68.893 58.5295 66.8869C58.5295 64.8808 60.1558 63.2545 62.1619 63.2545C64.168 63.2545 65.7943 64.8808 65.7943 66.8869ZM62.1619 83.784C64.168 83.784 65.7943 82.1577 65.7943 80.1516C65.7943 78.1455 64.168 76.5193 62.1619 76.5193C60.1558 76.5193 58.5295 78.1455 58.5295 80.1516C58.5295 82.1577 60.1558 83.784 62.1619 83.784ZM65.7943 93.4164C65.7943 95.4225 64.168 97.0487 62.1619 97.0487C60.1558 97.0487 58.5295 95.4225 58.5295 93.4164C58.5295 91.4103 60.1558 89.784 62.1619 89.784C64.168 89.784 65.7943 91.4103 65.7943 93.4164ZM78.4267 57.2545C80.4328 57.2545 82.0591 55.6282 82.0591 53.6221C82.0591 51.616 80.4328 49.9897 78.4267 49.9897C76.4206 49.9897 74.7943 51.616 74.7943 53.6221C74.7943 55.6282 76.4206 57.2545 78.4267 57.2545ZM82.0591 66.8869C82.0591 68.893 80.4328 70.5193 78.4267 70.5193C76.4206 70.5193 74.7943 68.893 74.7943 66.8869C74.7943 64.8808 76.4206 63.2545 78.4267 63.2545C80.4328 63.2545 82.0591 64.8808 82.0591 66.8869ZM78.4267 83.784C80.4328 83.784 82.0591 82.1577 82.0591 80.1516C82.0591 78.1455 80.4328 76.5193 78.4267 76.5193C76.4206 76.5193 74.7943 78.1455 74.7943 80.1516C74.7943 82.1577 76.4206 83.784 78.4267 83.784ZM82.0591 93.4164C82.0591 95.4225 80.4328 97.0487 78.4267 97.0487C76.4206 97.0487 74.7943 95.4225 74.7943 93.4164C74.7943 91.4103 76.4206 89.784 78.4267 89.784C80.4328 89.784 82.0591 91.4103 82.0591 93.4164Z" fill="url(#paint1_linear_203_832)"/>
<path fill-rule="evenodd" clip-rule="evenodd" d="M33.2633 66.9897H26.0014C26.0005 66.9556 26 66.9213 26 66.8869C26 64.8808 27.6263 63.2545 29.6324 63.2545C31.6385 63.2545 33.2648 64.8808 33.2648 66.8869C33.2648 66.9213 33.2643 66.9556 33.2633 66.9897ZM49.528 66.9897H42.2661C42.2651 66.9556 42.2646 66.9213 42.2646 66.8869C42.2646 64.8808 43.8909 63.2545 45.897 63.2545C47.9032 63.2545 49.5294 64.8808 49.5294 66.8869C49.5294 66.9213 49.5289 66.9556 49.528 66.9897ZM65.7929 66.9897H58.531C58.53 66.9556 58.5295 66.9213 58.5295 66.8869C58.5295 64.8808 60.1558 63.2545 62.1619 63.2545C64.168 63.2545 65.7943 64.8808 65.7943 66.8869C65.7943 66.9213 65.7938 66.9556 65.7929 66.9897ZM82.0576 66.9897H74.7957C74.7948 66.9556 74.7943 66.9213 74.7943 66.8869C74.7943 64.8808 76.4206 63.2545 78.4267 63.2545C80.4328 63.2545 82.0591 64.8808 82.0591 66.8869C82.0591 66.9213 82.0586 66.9556 82.0576 66.9897ZM29.6324 57.2545C31.6385 57.2545 33.2648 55.6282 33.2648 53.6221C33.2648 51.616 31.6385 49.9897 29.6324 49.9897C27.6263 49.9897 26 51.616 26 53.6221C26 55.6282 27.6263 57.2545 29.6324 57.2545ZM49.5294 53.6221C49.5294 55.6282 47.9032 57.2545 45.897 57.2545C43.8909 57.2545 42.2646 55.6282 42.2646 53.6221C42.2646 51.616 43.8909 49.9897 45.897 49.9897C47.9032 49.9897 49.5294 51.616 49.5294 53.6221ZM65.7943 53.6221C65.7943 55.6282 64.168 57.2545 62.1619 57.2545C60.1558 57.2545 58.5295 55.6282 58.5295 53.6221C58.5295 51.616 60.1558 49.9897 62.1619 49.9897C64.168 49.9897 65.7943 51.616 65.7943 53.6221ZM82.0591 53.6221C82.0591 55.6282 80.4328 57.2545 78.4267 57.2545C76.4206 57.2545 74.7943 55.6282 74.7943 53.6221C74.7943 51.616 76.4206 49.9897 78.4267 49.9897C80.4328 49.9897 82.0591 51.616 82.0591 53.6221Z" fill="#E0F3FE"/>
<defs>
<filter id="filter0_f_203_832" x="0" y="36.9897" width="107" height="63" filterUnits="userSpaceOnUse" color-interpolation-filters="sRGB">
<feFlood flood-opacity="0" result="BackgroundImageFix"/>
<feBlend mode="normal" in="SourceGraphic" in2="BackgroundImageFix" result="shape"/>
<feGaussianBlur stdDeviation="11" result="effect1_foregroundBlur_203_832"/>
</filter>
<filter id="filter1_bi_203_832" x="-7" y="-6.01025" width="122" height="80" filterUnits="userSpaceOnUse" color-interpolation-filters="sRGB">
<feFlood flood-opacity="0" result="BackgroundImageFix"/>
<feGaussianBlur in="BackgroundImageFix" stdDeviation="3.5"/>
<feComposite in2="SourceAlpha" operator="in" result="effect1_backgroundBlur_203_832"/>
<feBlend mode="normal" in="SourceGraphic" in2="effect1_backgroundBlur_203_832" result="shape"/>
<feColorMatrix in="SourceAlpha" type="matrix" values="0 0 0 0 0 0 0 0 0 0 0 0 0 0 0 0 0 0 127 0" result="hardAlpha"/>
<feOffset dy="2"/>
<feGaussianBlur stdDeviation="4"/>
<feComposite in2="hardAlpha" operator="arithmetic" k2="-1" k3="1"/>
<feColorMatrix type="matrix" values="0 0 0 0 0 0 0 0 0 0.82 0 0 0 0 1 0 0 0 0.25 0"/>
<feBlend mode="normal" in2="shape" result="effect2_innerShadow_203_832"/>
</filter>
<linearGradient id="paint0_linear_203_832" x1="56" y1="90.4897" x2="96.5" y2="0.989746" gradientUnits="userSpaceOnUse">
<stop stop-color="#0082DF"/>
<stop offset="0.299998" stop-color="#48B2FF" stop-opacity="0.75"/>
<stop offset="1" stop-color="#3BADFF" stop-opacity="0"/>
</linearGradient>
<linearGradient id="paint1_linear_203_832" x1="54.0295" y1="49.9897" x2="54.0295" y2="97.0487" gradientUnits="userSpaceOnUse">
<stop stop-color="#D7F0FF"/>
<stop offset="1" stop-color="#0072DC"/>
</linearGradient>
</defs>
</svg>
