<svg width="108" height="99" viewBox="0 0 108 99" fill="none" xmlns="http://www.w3.org/2000/svg">
<g filter="url(#filter0_f_203_294)">
<ellipse cx="53.5" cy="67.5" rx="31.5" ry="9.5" fill="#4DB4FF"/>
</g>
<g filter="url(#filter1_bi_203_294)">
<path fill-rule="evenodd" clip-rule="evenodd" d="M77 30C77 30.7882 76.9696 31.5693 76.9099 32.3422C80.1949 29.6296 84.4071 28 89 28C99.4934 28 108 36.5066 108 47C108 57.158 100.029 65.4541 90 65.9741V66H89H19H17V65.896C7.44667 64.8966 0 56.8179 0 47C0 37.1618 7.47752 29.07 17.0593 28.0979C18.0405 12.4156 31.0704 0 47 0C63.5685 0 77 13.4315 77 30Z" fill="url(#paint0_linear_203_294)"/>
</g>
<path fill-rule="evenodd" clip-rule="evenodd" d="M33.2648 52.6324C33.2648 54.6385 31.6385 56.2648 29.6324 56.2648C27.6263 56.2648 26 54.6385 26 52.6324C26 50.6263 27.6263 49 29.6324 49C31.6385 49 33.2648 50.6263 33.2648 52.6324ZM33.2648 65.8972C33.2648 67.9033 31.6385 69.5295 29.6324 69.5295C27.6263 69.5295 26 67.9033 26 65.8972C26 63.891 27.6263 62.2648 29.6324 62.2648C31.6385 62.2648 33.2648 63.891 33.2648 65.8972ZM29.6324 82.7943C31.6385 82.7943 33.2648 81.168 33.2648 79.1619C33.2648 77.1558 31.6385 75.5295 29.6324 75.5295C27.6263 75.5295 26 77.1558 26 79.1619C26 81.168 27.6263 82.7943 29.6324 82.7943ZM33.2648 92.4266C33.2648 94.4327 31.6385 96.059 29.6324 96.059C27.6263 96.059 26 94.4327 26 92.4266C26 90.4205 27.6263 88.7943 29.6324 88.7943C31.6385 88.7943 33.2648 90.4205 33.2648 92.4266ZM45.897 56.2648C47.9032 56.2648 49.5294 54.6385 49.5294 52.6324C49.5294 50.6263 47.9032 49 45.897 49C43.8909 49 42.2646 50.6263 42.2646 52.6324C42.2646 54.6385 43.8909 56.2648 45.897 56.2648ZM49.5294 65.8972C49.5294 67.9033 47.9032 69.5295 45.897 69.5295C43.8909 69.5295 42.2646 67.9033 42.2646 65.8972C42.2646 63.891 43.8909 62.2648 45.897 62.2648C47.9032 62.2648 49.5294 63.891 49.5294 65.8972ZM45.897 82.7943C47.9032 82.7943 49.5294 81.168 49.5294 79.1619C49.5294 77.1558 47.9032 75.5295 45.897 75.5295C43.8909 75.5295 42.2646 77.1558 42.2646 79.1619C42.2646 81.168 43.8909 82.7943 45.897 82.7943ZM49.5294 92.4266C49.5294 94.4327 47.9032 96.059 45.897 96.059C43.8909 96.059 42.2646 94.4327 42.2646 92.4266C42.2646 90.4205 43.8909 88.7943 45.897 88.7943C47.9032 88.7943 49.5294 90.4205 49.5294 92.4266ZM62.1619 56.2648C64.168 56.2648 65.7943 54.6385 65.7943 52.6324C65.7943 50.6263 64.168 49 62.1619 49C60.1558 49 58.5295 50.6263 58.5295 52.6324C58.5295 54.6385 60.1558 56.2648 62.1619 56.2648ZM65.7943 65.8972C65.7943 67.9033 64.168 69.5295 62.1619 69.5295C60.1558 69.5295 58.5295 67.9033 58.5295 65.8972C58.5295 63.891 60.1558 62.2648 62.1619 62.2648C64.168 62.2648 65.7943 63.891 65.7943 65.8972ZM62.1619 82.7943C64.168 82.7943 65.7943 81.168 65.7943 79.1619C65.7943 77.1558 64.168 75.5295 62.1619 75.5295C60.1558 75.5295 58.5295 77.1558 58.5295 79.1619C58.5295 81.168 60.1558 82.7943 62.1619 82.7943ZM65.7943 92.4266C65.7943 94.4327 64.168 96.059 62.1619 96.059C60.1558 96.059 58.5295 94.4327 58.5295 92.4266C58.5295 90.4205 60.1558 88.7943 62.1619 88.7943C64.168 88.7943 65.7943 90.4205 65.7943 92.4266ZM78.4267 56.2648C80.4328 56.2648 82.0591 54.6385 82.0591 52.6324C82.0591 50.6263 80.4328 49 78.4267 49C76.4206 49 74.7943 50.6263 74.7943 52.6324C74.7943 54.6385 76.4206 56.2648 78.4267 56.2648ZM82.0591 65.8972C82.0591 67.9033 80.4328 69.5295 78.4267 69.5295C76.4206 69.5295 74.7943 67.9033 74.7943 65.8972C74.7943 63.891 76.4206 62.2648 78.4267 62.2648C80.4328 62.2648 82.0591 63.891 82.0591 65.8972ZM78.4267 82.7943C80.4328 82.7943 82.0591 81.168 82.0591 79.1619C82.0591 77.1558 80.4328 75.5295 78.4267 75.5295C76.4206 75.5295 74.7943 77.1558 74.7943 79.1619C74.7943 81.168 76.4206 82.7943 78.4267 82.7943ZM82.0591 92.4266C82.0591 94.4327 80.4328 96.059 78.4267 96.059C76.4206 96.059 74.7943 94.4327 74.7943 92.4266C74.7943 90.4205 76.4206 88.7943 78.4267 88.7943C80.4328 88.7943 82.0591 90.4205 82.0591 92.4266Z" fill="url(#paint1_linear_203_294)"/>
<path fill-rule="evenodd" clip-rule="evenodd" d="M33.2633 66H26.0014C26.0005 65.9658 26 65.9315 26 65.8972C26 63.891 27.6263 62.2648 29.6324 62.2648C31.6385 62.2648 33.2648 63.891 33.2648 65.8972C33.2648 65.9315 33.2643 65.9658 33.2633 66ZM49.528 66H42.2661C42.2651 65.9658 42.2646 65.9315 42.2646 65.8972C42.2646 63.891 43.8909 62.2648 45.897 62.2648C47.9032 62.2648 49.5294 63.891 49.5294 65.8972C49.5294 65.9315 49.5289 65.9658 49.528 66ZM65.7929 66H58.531C58.53 65.9658 58.5295 65.9315 58.5295 65.8972C58.5295 63.891 60.1558 62.2648 62.1619 62.2648C64.168 62.2648 65.7943 63.891 65.7943 65.8972C65.7943 65.9315 65.7938 65.9658 65.7929 66ZM82.0576 66H74.7957C74.7948 65.9658 74.7943 65.9315 74.7943 65.8972C74.7943 63.891 76.4206 62.2648 78.4267 62.2648C80.4328 62.2648 82.0591 63.891 82.0591 65.8972C82.0591 65.9315 82.0586 65.9658 82.0576 66ZM29.6324 56.2648C31.6385 56.2648 33.2648 54.6385 33.2648 52.6324C33.2648 50.6263 31.6385 49 29.6324 49C27.6263 49 26 50.6263 26 52.6324C26 54.6385 27.6263 56.2648 29.6324 56.2648ZM49.5294 52.6324C49.5294 54.6385 47.9032 56.2648 45.897 56.2648C43.8909 56.2648 42.2646 54.6385 42.2646 52.6324C42.2646 50.6263 43.8909 49 45.897 49C47.9032 49 49.5294 50.6263 49.5294 52.6324ZM65.7943 52.6324C65.7943 54.6385 64.168 56.2648 62.1619 56.2648C60.1558 56.2648 58.5295 54.6385 58.5295 52.6324C58.5295 50.6263 60.1558 49 62.1619 49C64.168 49 65.7943 50.6263 65.7943 52.6324ZM82.0591 52.6324C82.0591 54.6385 80.4328 56.2648 78.4267 56.2648C76.4206 56.2648 74.7943 54.6385 74.7943 52.6324C74.7943 50.6263 76.4206 49 78.4267 49C80.4328 49 82.0591 50.6263 82.0591 52.6324Z" fill="#E0F3FE"/>
<defs>
<filter id="filter0_f_203_294" x="0" y="36" width="107" height="63" filterUnits="userSpaceOnUse" color-interpolation-filters="sRGB">
<feFlood flood-opacity="0" result="BackgroundImageFix"/>
<feBlend mode="normal" in="SourceGraphic" in2="BackgroundImageFix" result="shape"/>
<feGaussianBlur stdDeviation="11" result="effect1_foregroundBlur_203_294"/>
</filter>
<filter id="filter1_bi_203_294" x="-7" y="-7" width="122" height="80" filterUnits="userSpaceOnUse" color-interpolation-filters="sRGB">
<feFlood flood-opacity="0" result="BackgroundImageFix"/>
<feGaussianBlur in="BackgroundImageFix" stdDeviation="3.5"/>
<feComposite in2="SourceAlpha" operator="in" result="effect1_backgroundBlur_203_294"/>
<feBlend mode="normal" in="SourceGraphic" in2="effect1_backgroundBlur_203_294" result="shape"/>
<feColorMatrix in="SourceAlpha" type="matrix" values="0 0 0 0 0 0 0 0 0 0 0 0 0 0 0 0 0 0 127 0" result="hardAlpha"/>
<feOffset dy="2"/>
<feGaussianBlur stdDeviation="4"/>
<feComposite in2="hardAlpha" operator="arithmetic" k2="-1" k3="1"/>
<feColorMatrix type="matrix" values="0 0 0 0 0 0 0 0 0 0.82 0 0 0 0 1 0 0 0 0.25 0"/>
<feBlend mode="normal" in2="shape" result="effect2_innerShadow_203_294"/>
</filter>
<linearGradient id="paint0_linear_203_294" x1="56" y1="89.5" x2="96.5" y2="1.95655e-07" gradientUnits="userSpaceOnUse">
<stop stop-color="#0082DF"/>
<stop offset="0.299998" stop-color="#48B2FF" stop-opacity="0.75"/>
<stop offset="1" stop-color="#3BADFF" stop-opacity="0"/>
</linearGradient>
<linearGradient id="paint1_linear_203_294" x1="54.0295" y1="49" x2="54.0295" y2="96.059" gradientUnits="userSpaceOnUse">
<stop stop-color="#D7F0FF"/>
<stop offset="1" stop-color="#0072DC"/>
</linearGradient>
</defs>
</svg>
