<svg width="110" height="110" viewBox="0 0 110 110" fill="none" xmlns="http://www.w3.org/2000/svg">
<g filter="url(#filter0_ddi_203_184)">
<circle cx="55.9999" cy="54" r="32" fill="url(#paint0_linear_203_184)"/>
</g>
<g filter="url(#filter1_f_203_184)">
<ellipse cx="84.1493" cy="43.4222" rx="11.8636" ry="3.57792" fill="#4DB4FF"/>
</g>
<g filter="url(#filter2_bi_203_184)">
<path fill-rule="evenodd" clip-rule="evenodd" d="M92.9999 29.2987C92.9999 29.5956 92.9884 29.8898 92.9659 30.181C94.2031 29.1593 95.7896 28.5455 97.5195 28.5455C101.472 28.5455 104.675 31.7492 104.675 35.7013C104.675 39.5271 101.673 42.6516 97.896 42.8474V42.8571H97.5344C97.5294 42.8571 97.5245 42.8572 97.5195 42.8572C97.5145 42.8572 97.5095 42.8571 97.5045 42.8571H71.1707C71.1657 42.8571 71.1607 42.8572 71.1557 42.8572C71.1507 42.8572 71.1458 42.8571 71.1408 42.8571H70.4025V42.818C66.8045 42.4416 63.9999 39.399 63.9999 35.7013C63.9999 31.996 66.8161 28.9484 70.4248 28.5823C70.7943 22.676 75.7017 18 81.7012 18C87.9413 18 92.9999 23.0586 92.9999 29.2987Z" fill="url(#paint1_linear_203_184)"/>
</g>
<g filter="url(#filter3_f_203_184)">
<ellipse cx="16.2083" cy="4.88823" rx="16.2083" ry="4.88823" transform="matrix(-1 0 0 1 50.2513 81.8438)" fill="#4DB4FF"/>
</g>
<g filter="url(#filter4_bi_203_184)">
<path fill-rule="evenodd" clip-rule="evenodd" d="M21.951 67.4365C21.951 67.8421 21.9666 68.244 21.9973 68.6417C20.3071 67.2459 18.1397 66.4074 15.7764 66.4074C10.377 66.4074 5.99995 70.7845 5.99995 76.1839C5.99995 81.4106 10.1016 85.6794 15.2618 85.947V85.9603H15.7641C15.7682 85.9603 15.7723 85.9603 15.7764 85.9603C15.7805 85.9603 15.7846 85.9603 15.7888 85.9603H51.7826C51.7867 85.9603 51.7908 85.9603 51.795 85.9603C51.7991 85.9603 51.8032 85.9603 51.8073 85.9603H52.824V85.9068C57.7397 85.3926 61.5714 81.2357 61.5714 76.1839C61.5714 71.1216 57.7238 66.9579 52.7935 66.4578C52.2886 58.3884 45.5841 52 37.3875 52C28.8621 52 21.951 58.9112 21.951 67.4365Z" fill="url(#paint2_linear_203_184)"/>
</g>
<defs>
<filter id="filter0_ddi_203_184" x="7.99988" y="6" width="96" height="96" filterUnits="userSpaceOnUse" color-interpolation-filters="sRGB">
<feFlood flood-opacity="0" result="BackgroundImageFix"/>
<feColorMatrix in="SourceAlpha" type="matrix" values="0 0 0 0 0 0 0 0 0 0 0 0 0 0 0 0 0 0 127 0" result="hardAlpha"/>
<feOffset/>
<feGaussianBlur stdDeviation="8"/>
<feComposite in2="hardAlpha" operator="out"/>
<feColorMatrix type="matrix" values="0 0 0 0 0.992157 0 0 0 0 0.773882 0 0 0 0 0 0 0 0 1 0"/>
<feBlend mode="normal" in2="BackgroundImageFix" result="effect1_dropShadow_203_184"/>
<feColorMatrix in="SourceAlpha" type="matrix" values="0 0 0 0 0 0 0 0 0 0 0 0 0 0 0 0 0 0 127 0" result="hardAlpha"/>
<feOffset/>
<feGaussianBlur stdDeviation="5.5"/>
<feComposite in2="hardAlpha" operator="out"/>
<feColorMatrix type="matrix" values="0 0 0 0 0.992157 0 0 0 0 0.772549 0 0 0 0 0 0 0 0 0.45 0"/>
<feBlend mode="normal" in2="effect1_dropShadow_203_184" result="effect2_dropShadow_203_184"/>
<feBlend mode="normal" in="SourceGraphic" in2="effect2_dropShadow_203_184" result="shape"/>
<feColorMatrix in="SourceAlpha" type="matrix" values="0 0 0 0 0 0 0 0 0 0 0 0 0 0 0 0 0 0 127 0" result="hardAlpha"/>
<feOffset dx="-1" dy="3"/>
<feGaussianBlur stdDeviation="2.5"/>
<feComposite in2="hardAlpha" operator="arithmetic" k2="-1" k3="1"/>
<feColorMatrix type="matrix" values="0 0 0 0 1 0 0 0 0 0.9 0 0 0 0 0 0 0 0 0.35 0"/>
<feBlend mode="normal" in2="shape" result="effect3_innerShadow_203_184"/>
</filter>
<filter id="filter1_f_203_184" x="63.9999" y="31.5585" width="40.2987" height="23.7272" filterUnits="userSpaceOnUse" color-interpolation-filters="sRGB">
<feFlood flood-opacity="0" result="BackgroundImageFix"/>
<feBlend mode="normal" in="SourceGraphic" in2="BackgroundImageFix" result="shape"/>
<feGaussianBlur stdDeviation="4.14286" result="effect1_foregroundBlur_203_184"/>
</filter>
<filter id="filter2_bi_203_184" x="61.3635" y="15.3636" width="45.9481" height="30.1297" filterUnits="userSpaceOnUse" color-interpolation-filters="sRGB">
<feFlood flood-opacity="0" result="BackgroundImageFix"/>
<feGaussianBlur in="BackgroundImageFix" stdDeviation="1.31818"/>
<feComposite in2="SourceAlpha" operator="in" result="effect1_backgroundBlur_203_184"/>
<feBlend mode="normal" in="SourceGraphic" in2="effect1_backgroundBlur_203_184" result="shape"/>
<feColorMatrix in="SourceAlpha" type="matrix" values="0 0 0 0 0 0 0 0 0 0 0 0 0 0 0 0 0 0 127 0" result="hardAlpha"/>
<feOffset dy="0.753247"/>
<feGaussianBlur stdDeviation="1.50649"/>
<feComposite in2="hardAlpha" operator="arithmetic" k2="-1" k3="1"/>
<feColorMatrix type="matrix" values="0 0 0 0 0 0 0 0 0 0.82 0 0 0 0 1 0 0 0 0.25 0"/>
<feBlend mode="normal" in2="shape" result="effect2_innerShadow_203_184"/>
</filter>
<filter id="filter3_f_203_184" x="6.51461" y="70.5236" width="55.0568" height="32.4166" filterUnits="userSpaceOnUse" color-interpolation-filters="sRGB">
<feFlood flood-opacity="0" result="BackgroundImageFix"/>
<feBlend mode="normal" in="SourceGraphic" in2="BackgroundImageFix" result="shape"/>
<feGaussianBlur stdDeviation="5.66005" result="effect1_foregroundBlur_203_184"/>
</filter>
<filter id="filter4_bi_203_184" x="2.39815" y="48.3981" width="62.7751" height="41.1642" filterUnits="userSpaceOnUse" color-interpolation-filters="sRGB">
<feFlood flood-opacity="0" result="BackgroundImageFix"/>
<feGaussianBlur in="BackgroundImageFix" stdDeviation="1.80093"/>
<feComposite in2="SourceAlpha" operator="in" result="effect1_backgroundBlur_203_184"/>
<feBlend mode="normal" in="SourceGraphic" in2="effect1_backgroundBlur_203_184" result="shape"/>
<feColorMatrix in="SourceAlpha" type="matrix" values="0 0 0 0 0 0 0 0 0 0 0 0 0 0 0 0 0 0 127 0" result="hardAlpha"/>
<feOffset dy="1.0291"/>
<feGaussianBlur stdDeviation="2.0582"/>
<feComposite in2="hardAlpha" operator="arithmetic" k2="-1" k3="1"/>
<feColorMatrix type="matrix" values="0 0 0 0 0 0 0 0 0 0.82 0 0 0 0 1 0 0 0 0.25 0"/>
<feBlend mode="normal" in2="shape" result="effect2_innerShadow_203_184"/>
</filter>
<linearGradient id="paint0_linear_203_184" x1="55.9999" y1="22" x2="55.9999" y2="86" gradientUnits="userSpaceOnUse">
<stop stop-color="#FDC500"/>
<stop offset="1" stop-color="#FD8900"/>
</linearGradient>
<linearGradient id="paint1_linear_203_184" x1="85.0908" y1="51.7078" x2="100.344" y2="18" gradientUnits="userSpaceOnUse">
<stop stop-color="#2BA6FF"/>
<stop offset="0.299998" stop-color="#48B2FF" stop-opacity="0.75"/>
<stop offset="1" stop-color="#3BADFF" stop-opacity="0"/>
</linearGradient>
<linearGradient id="paint2_linear_203_184" x1="32.7566" y1="98.0522" x2="21.9999" y2="38.5" gradientUnits="userSpaceOnUse">
<stop offset="0.13121" stop-color="#2BA6FF"/>
<stop offset="1" stop-color="#3BADFF" stop-opacity="0"/>
</linearGradient>
</defs>
</svg>
