<svg width="108" height="100" viewBox="0 0 108 100" fill="none" xmlns="http://www.w3.org/2000/svg">
<g filter="url(#filter0_f_203_735)">
<ellipse cx="53.5" cy="68.4897" rx="31.5" ry="9.5" fill="#4DB4FF"/>
</g>
<g filter="url(#filter1_bi_203_735)">
<path fill-rule="evenodd" clip-rule="evenodd" d="M77 30.9897C77 31.778 76.9696 32.5591 76.9099 33.332C80.1949 30.6194 84.4071 28.9897 89 28.9897C99.4934 28.9897 108 37.4963 108 47.9897C108 58.1477 100.029 66.4439 90 66.9639V66.9897H89H19H17V66.8857C7.44667 65.8863 0 57.8077 0 47.9897C0 38.1515 7.47752 30.0597 17.0593 29.0876C18.0405 13.4053 31.0704 0.989746 47 0.989746C63.5685 0.989746 77 14.4212 77 30.9897Z" fill="url(#paint0_linear_203_735)"/>
</g>
<path fill-rule="evenodd" clip-rule="evenodd" d="M41 41.9897C42.3807 41.9897 43.5 43.109 43.5 44.4897L43.5 59.4897C43.5 60.8705 42.3807 61.9897 41 61.9897C39.6193 61.9897 38.5 60.8705 38.5 59.4897L38.5 44.4897C38.5 43.109 39.6193 41.9897 41 41.9897ZM67 46.9897C68.3807 46.9897 69.5 48.109 69.5 49.4897V77.4897C69.5 78.8705 68.3807 79.9897 67 79.9897C65.6193 79.9897 64.5 78.8705 64.5 77.4897V49.4897C64.5 48.109 65.6193 46.9897 67 46.9897ZM54 53.9897C55.3807 53.9897 56.5 55.109 56.5 56.4897V65.4897C56.5 66.8705 55.3807 67.9897 54 67.9897C52.6193 67.9897 51.5 66.8705 51.5 65.4897V56.4897C51.5 55.109 52.6193 53.9897 54 53.9897ZM54 73.9897C55.3807 73.9897 56.5 75.109 56.5 76.4897V94.4897C56.5 95.8705 55.3807 96.9897 54 96.9897C52.6193 96.9897 51.5 95.8705 51.5 94.4897V76.4897C51.5 75.109 52.6193 73.9897 54 73.9897ZM69.5 87.4897C69.5 86.109 68.3807 84.9897 67 84.9897C65.6193 84.9897 64.5 86.109 64.5 87.4897V94.4897C64.5 95.8705 65.6193 96.9897 67 96.9897C68.3807 96.9897 69.5 95.8705 69.5 94.4897V87.4897ZM82.5 61.4897C82.5 60.109 81.3807 58.9897 80 58.9897C78.6193 58.9897 77.5 60.109 77.5 61.4897V68.4897C77.5 69.8705 78.6193 70.9897 80 70.9897C81.3807 70.9897 82.5 69.8705 82.5 68.4897V61.4897ZM80 76.9897C81.3807 76.9897 82.5 78.109 82.5 79.4897V94.4897C82.5 95.8705 81.3807 96.9897 80 96.9897C78.6193 96.9897 77.5 95.8705 77.5 94.4897V79.4897C77.5 78.109 78.6193 76.9897 80 76.9897ZM43.5 69.4897C43.5 68.109 42.3807 66.9897 41 66.9897C39.6193 66.9897 38.5 68.109 38.5 69.4897V76.4897C38.5 77.8705 39.6193 78.9897 41 78.9897C42.3807 78.9897 43.5 77.8705 43.5 76.4897V69.4897ZM43.5 87.4897C43.5 86.109 42.3807 84.9897 41 84.9897C39.6193 84.9897 38.5 86.109 38.5 87.4897V94.4897C38.5 95.8705 39.6193 96.9897 41 96.9897C42.3807 96.9897 43.5 95.8705 43.5 94.4897V87.4897ZM27 51.9897C28.3807 51.9897 29.5 53.109 29.5 54.4897L29.5 62.4897C29.5 63.8705 28.3807 64.9897 27 64.9897C25.6193 64.9897 24.5 63.8705 24.5 62.4897V54.4897C24.5 53.109 25.6193 51.9897 27 51.9897ZM29.5 74.4897C29.5 73.109 28.3807 71.9897 27 71.9897C25.6193 71.9897 24.5 73.109 24.5 74.4897V94.4897C24.5 95.8705 25.6193 96.9897 27 96.9897C28.3807 96.9897 29.5 95.8705 29.5 94.4897L29.5 74.4897Z" fill="url(#paint1_linear_203_735)"/>
<path fill-rule="evenodd" clip-rule="evenodd" d="M56.0002 66.9897H51.9998C51.686 66.5719 51.5 66.0525 51.5 65.4897V56.4897C51.5 55.109 52.6193 53.9897 54 53.9897C55.3807 53.9897 56.5 55.109 56.5 56.4897V65.4897C56.5 66.0525 56.314 66.5719 56.0002 66.9897ZM69.5 66.9897H64.5V49.4897C64.5 48.109 65.6193 46.9897 67 46.9897C68.3807 46.9897 69.5 48.109 69.5 49.4897V66.9897ZM82.5 66.9897H77.5V61.4897C77.5 60.109 78.6193 58.9897 80 58.9897C81.3807 58.9897 82.5 60.109 82.5 61.4897V66.9897ZM43.5 44.4897C43.5 43.109 42.3807 41.9897 41 41.9897C39.6193 41.9897 38.5 43.109 38.5 44.4897L38.5 59.4897C38.5 60.8705 39.6193 61.9897 41 61.9897C42.3807 61.9897 43.5 60.8705 43.5 59.4897L43.5 44.4897ZM29.5 54.4897C29.5 53.109 28.3807 51.9897 27 51.9897C25.6193 51.9897 24.5 53.109 24.5 54.4897V62.4897C24.5 63.8705 25.6193 64.9897 27 64.9897C28.3807 64.9897 29.5 63.8705 29.5 62.4897L29.5 54.4897Z" fill="#E0F3FE"/>
<defs>
<filter id="filter0_f_203_735" x="0" y="36.9897" width="107" height="63" filterUnits="userSpaceOnUse" color-interpolation-filters="sRGB">
<feFlood flood-opacity="0" result="BackgroundImageFix"/>
<feBlend mode="normal" in="SourceGraphic" in2="BackgroundImageFix" result="shape"/>
<feGaussianBlur stdDeviation="11" result="effect1_foregroundBlur_203_735"/>
</filter>
<filter id="filter1_bi_203_735" x="-7" y="-6.01025" width="122" height="80" filterUnits="userSpaceOnUse" color-interpolation-filters="sRGB">
<feFlood flood-opacity="0" result="BackgroundImageFix"/>
<feGaussianBlur in="BackgroundImageFix" stdDeviation="3.5"/>
<feComposite in2="SourceAlpha" operator="in" result="effect1_backgroundBlur_203_735"/>
<feBlend mode="normal" in="SourceGraphic" in2="effect1_backgroundBlur_203_735" result="shape"/>
<feColorMatrix in="SourceAlpha" type="matrix" values="0 0 0 0 0 0 0 0 0 0 0 0 0 0 0 0 0 0 127 0" result="hardAlpha"/>
<feOffset dy="2"/>
<feGaussianBlur stdDeviation="4"/>
<feComposite in2="hardAlpha" operator="arithmetic" k2="-1" k3="1"/>
<feColorMatrix type="matrix" values="0 0 0 0 0 0 0 0 0 0.82 0 0 0 0 1 0 0 0 0.25 0"/>
<feBlend mode="normal" in2="shape" result="effect2_innerShadow_203_735"/>
</filter>
<linearGradient id="paint0_linear_203_735" x1="56" y1="90.4897" x2="96.5" y2="0.989746" gradientUnits="userSpaceOnUse">
<stop stop-color="#0082DF"/>
<stop offset="0.299998" stop-color="#48B2FF" stop-opacity="0.75"/>
<stop offset="1" stop-color="#3BADFF" stop-opacity="0"/>
</linearGradient>
<linearGradient id="paint1_linear_203_735" x1="53.5" y1="41.9897" x2="53.5" y2="96.9897" gradientUnits="userSpaceOnUse">
<stop offset="0.168182" stop-color="#D7F0FF"/>
<stop offset="1" stop-color="#0072DC"/>
</linearGradient>
</defs>
</svg>
