<svg width="108" height="100" viewBox="0 0 108 100" fill="none" xmlns="http://www.w3.org/2000/svg">
<g filter="url(#filter0_f_203_364)">
<ellipse cx="53.5" cy="67.5591" rx="31.5" ry="9.5" fill="#4DB4FF"/>
</g>
<g filter="url(#filter1_bi_203_364)">
<path fill-rule="evenodd" clip-rule="evenodd" d="M77 30.0591C77 30.8473 76.9696 31.6284 76.9099 32.4013C80.1949 29.6887 84.4071 28.0591 89 28.0591C99.4934 28.0591 108 36.5657 108 47.0591C108 57.2171 100.029 65.5132 90 66.0332V66.0591H89H19H17V65.9551C7.44667 64.9557 0 56.877 0 47.0591C0 37.2208 7.47752 29.1291 17.0593 28.157C18.0405 12.4747 31.0704 0.059082 47 0.059082C63.5685 0.059082 77 13.4905 77 30.0591Z" fill="url(#paint0_linear_203_364)"/>
</g>
<path fill-rule="evenodd" clip-rule="evenodd" d="M33.2648 52.6914C33.2648 54.6975 31.6385 56.3238 29.6324 56.3238C27.6263 56.3238 26 54.6975 26 52.6914C26 50.6853 27.6263 49.0591 29.6324 49.0591C31.6385 49.0591 33.2648 50.6853 33.2648 52.6914ZM33.2648 65.9562C33.2648 67.9623 31.6385 69.5886 29.6324 69.5886C27.6263 69.5886 26 67.9623 26 65.9562C26 63.9501 27.6263 62.3238 29.6324 62.3238C31.6385 62.3238 33.2648 63.9501 33.2648 65.9562ZM29.6324 82.8534C31.6385 82.8534 33.2648 81.2271 33.2648 79.221C33.2648 77.2148 31.6385 75.5886 29.6324 75.5886C27.6263 75.5886 26 77.2148 26 79.221C26 81.2271 27.6263 82.8534 29.6324 82.8534ZM33.2648 92.4857C33.2648 94.4918 31.6385 96.1181 29.6324 96.1181C27.6263 96.1181 26 94.4918 26 92.4857C26 90.4796 27.6263 88.8533 29.6324 88.8533C31.6385 88.8533 33.2648 90.4796 33.2648 92.4857ZM45.897 56.3238C47.9032 56.3238 49.5294 54.6975 49.5294 52.6914C49.5294 50.6853 47.9032 49.0591 45.897 49.0591C43.8909 49.0591 42.2646 50.6853 42.2646 52.6914C42.2646 54.6975 43.8909 56.3238 45.897 56.3238ZM49.5294 65.9562C49.5294 67.9623 47.9032 69.5886 45.897 69.5886C43.8909 69.5886 42.2646 67.9623 42.2646 65.9562C42.2646 63.9501 43.8909 62.3238 45.897 62.3238C47.9032 62.3238 49.5294 63.9501 49.5294 65.9562ZM45.897 82.8534C47.9032 82.8534 49.5294 81.2271 49.5294 79.221C49.5294 77.2148 47.9032 75.5886 45.897 75.5886C43.8909 75.5886 42.2646 77.2148 42.2646 79.221C42.2646 81.2271 43.8909 82.8534 45.897 82.8534ZM49.5294 92.4857C49.5294 94.4918 47.9032 96.1181 45.897 96.1181C43.8909 96.1181 42.2646 94.4918 42.2646 92.4857C42.2646 90.4796 43.8909 88.8533 45.897 88.8533C47.9032 88.8533 49.5294 90.4796 49.5294 92.4857ZM62.1619 56.3238C64.168 56.3238 65.7943 54.6975 65.7943 52.6914C65.7943 50.6853 64.168 49.0591 62.1619 49.0591C60.1558 49.0591 58.5295 50.6853 58.5295 52.6914C58.5295 54.6975 60.1558 56.3238 62.1619 56.3238ZM65.7943 65.9562C65.7943 67.9623 64.168 69.5886 62.1619 69.5886C60.1558 69.5886 58.5295 67.9623 58.5295 65.9562C58.5295 63.9501 60.1558 62.3238 62.1619 62.3238C64.168 62.3238 65.7943 63.9501 65.7943 65.9562ZM62.1619 82.8534C64.168 82.8534 65.7943 81.2271 65.7943 79.221C65.7943 77.2148 64.168 75.5886 62.1619 75.5886C60.1558 75.5886 58.5295 77.2148 58.5295 79.221C58.5295 81.2271 60.1558 82.8534 62.1619 82.8534ZM65.7943 92.4857C65.7943 94.4918 64.168 96.1181 62.1619 96.1181C60.1558 96.1181 58.5295 94.4918 58.5295 92.4857C58.5295 90.4796 60.1558 88.8533 62.1619 88.8533C64.168 88.8533 65.7943 90.4796 65.7943 92.4857ZM78.4267 56.3238C80.4328 56.3238 82.0591 54.6975 82.0591 52.6914C82.0591 50.6853 80.4328 49.0591 78.4267 49.0591C76.4206 49.0591 74.7943 50.6853 74.7943 52.6914C74.7943 54.6975 76.4206 56.3238 78.4267 56.3238ZM82.0591 65.9562C82.0591 67.9623 80.4328 69.5886 78.4267 69.5886C76.4206 69.5886 74.7943 67.9623 74.7943 65.9562C74.7943 63.9501 76.4206 62.3238 78.4267 62.3238C80.4328 62.3238 82.0591 63.9501 82.0591 65.9562ZM78.4267 82.8534C80.4328 82.8534 82.0591 81.2271 82.0591 79.221C82.0591 77.2148 80.4328 75.5886 78.4267 75.5886C76.4206 75.5886 74.7943 77.2148 74.7943 79.221C74.7943 81.2271 76.4206 82.8534 78.4267 82.8534ZM82.0591 92.4857C82.0591 94.4918 80.4328 96.1181 78.4267 96.1181C76.4206 96.1181 74.7943 94.4918 74.7943 92.4857C74.7943 90.4796 76.4206 88.8533 78.4267 88.8533C80.4328 88.8533 82.0591 90.4796 82.0591 92.4857Z" fill="url(#paint1_linear_203_364)"/>
<path fill-rule="evenodd" clip-rule="evenodd" d="M33.2633 66.0591H26.0014C26.0005 66.0249 26 65.9906 26 65.9562C26 63.9501 27.6263 62.3238 29.6324 62.3238C31.6385 62.3238 33.2648 63.9501 33.2648 65.9562C33.2648 65.9906 33.2643 66.0249 33.2633 66.0591ZM49.528 66.0591H42.2661C42.2651 66.0249 42.2646 65.9906 42.2646 65.9562C42.2646 63.9501 43.8909 62.3238 45.897 62.3238C47.9032 62.3238 49.5294 63.9501 49.5294 65.9562C49.5294 65.9906 49.5289 66.0249 49.528 66.0591ZM65.7929 66.0591H58.531C58.53 66.0249 58.5295 65.9906 58.5295 65.9562C58.5295 63.9501 60.1558 62.3238 62.1619 62.3238C64.168 62.3238 65.7943 63.9501 65.7943 65.9562C65.7943 65.9906 65.7938 66.0249 65.7929 66.0591ZM82.0576 66.0591H74.7957C74.7948 66.0249 74.7943 65.9906 74.7943 65.9562C74.7943 63.9501 76.4206 62.3238 78.4267 62.3238C80.4328 62.3238 82.0591 63.9501 82.0591 65.9562C82.0591 65.9906 82.0586 66.0249 82.0576 66.0591ZM29.6324 56.3238C31.6385 56.3238 33.2648 54.6975 33.2648 52.6914C33.2648 50.6853 31.6385 49.0591 29.6324 49.0591C27.6263 49.0591 26 50.6853 26 52.6914C26 54.6975 27.6263 56.3238 29.6324 56.3238ZM49.5294 52.6914C49.5294 54.6975 47.9032 56.3238 45.897 56.3238C43.8909 56.3238 42.2646 54.6975 42.2646 52.6914C42.2646 50.6853 43.8909 49.0591 45.897 49.0591C47.9032 49.0591 49.5294 50.6853 49.5294 52.6914ZM65.7943 52.6914C65.7943 54.6975 64.168 56.3238 62.1619 56.3238C60.1558 56.3238 58.5295 54.6975 58.5295 52.6914C58.5295 50.6853 60.1558 49.0591 62.1619 49.0591C64.168 49.0591 65.7943 50.6853 65.7943 52.6914ZM82.0591 52.6914C82.0591 54.6975 80.4328 56.3238 78.4267 56.3238C76.4206 56.3238 74.7943 54.6975 74.7943 52.6914C74.7943 50.6853 76.4206 49.0591 78.4267 49.0591C80.4328 49.0591 82.0591 50.6853 82.0591 52.6914Z" fill="#E0F3FE"/>
<defs>
<filter id="filter0_f_203_364" x="0" y="36.0591" width="107" height="63" filterUnits="userSpaceOnUse" color-interpolation-filters="sRGB">
<feFlood flood-opacity="0" result="BackgroundImageFix"/>
<feBlend mode="normal" in="SourceGraphic" in2="BackgroundImageFix" result="shape"/>
<feGaussianBlur stdDeviation="11" result="effect1_foregroundBlur_203_364"/>
</filter>
<filter id="filter1_bi_203_364" x="-7" y="-6.94092" width="122" height="80" filterUnits="userSpaceOnUse" color-interpolation-filters="sRGB">
<feFlood flood-opacity="0" result="BackgroundImageFix"/>
<feGaussianBlur in="BackgroundImageFix" stdDeviation="3.5"/>
<feComposite in2="SourceAlpha" operator="in" result="effect1_backgroundBlur_203_364"/>
<feBlend mode="normal" in="SourceGraphic" in2="effect1_backgroundBlur_203_364" result="shape"/>
<feColorMatrix in="SourceAlpha" type="matrix" values="0 0 0 0 0 0 0 0 0 0 0 0 0 0 0 0 0 0 127 0" result="hardAlpha"/>
<feOffset dy="2"/>
<feGaussianBlur stdDeviation="4"/>
<feComposite in2="hardAlpha" operator="arithmetic" k2="-1" k3="1"/>
<feColorMatrix type="matrix" values="0 0 0 0 0 0 0 0 0 0.82 0 0 0 0 1 0 0 0 0.25 0"/>
<feBlend mode="normal" in2="shape" result="effect2_innerShadow_203_364"/>
</filter>
<linearGradient id="paint0_linear_203_364" x1="56" y1="89.5591" x2="96.5" y2="0.0590822" gradientUnits="userSpaceOnUse">
<stop stop-color="#0082DF"/>
<stop offset="0.299998" stop-color="#48B2FF" stop-opacity="0.75"/>
<stop offset="1" stop-color="#3BADFF" stop-opacity="0"/>
</linearGradient>
<linearGradient id="paint1_linear_203_364" x1="54.0295" y1="49.0591" x2="54.0295" y2="96.1181" gradientUnits="userSpaceOnUse">
<stop stop-color="#D7F0FF"/>
<stop offset="1" stop-color="#0072DC"/>
</linearGradient>
</defs>
</svg>
