<svg width="134" height="105" viewBox="0 0 134 105" fill="none" xmlns="http://www.w3.org/2000/svg">
<g filter="url(#filter0_bi_203_1135)">
<mask id="path-1-inside-1_203_1135" fill="white">
<path fill-rule="evenodd" clip-rule="evenodd" d="M113.046 20.5454C113.046 21.0782 113.025 21.6063 112.985 22.1288C115.206 20.2951 118.053 19.1935 121.157 19.1935C128.25 19.1935 134 24.9433 134 32.0361C134 38.9022 128.612 44.5099 121.833 44.8612V44.8787H72.4905V44.8084C66.0333 44.1327 61 38.6722 61 32.0361C61 25.3863 66.0541 19.9169 72.5306 19.2597C73.1938 8.6596 82.001 0.267578 92.7683 0.267578C103.967 0.267578 113.046 9.34625 113.046 20.5454Z"/>
</mask>
<path fill-rule="evenodd" clip-rule="evenodd" d="M113.046 20.5454C113.046 21.0782 113.025 21.6063 112.985 22.1288C115.206 20.2951 118.053 19.1935 121.157 19.1935C128.25 19.1935 134 24.9433 134 32.0361C134 38.9022 128.612 44.5099 121.833 44.8612V44.8787H72.4905V44.8084C66.0333 44.1327 61 38.6722 61 32.0361C61 25.3863 66.0541 19.9169 72.5306 19.2597C73.1938 8.6596 82.001 0.267578 92.7683 0.267578C103.967 0.267578 113.046 9.34625 113.046 20.5454Z" fill="url(#paint0_linear_203_1135)"/>
<path d="M112.985 22.1288L111.988 22.0518L111.807 24.3987L113.622 22.8998L112.985 22.1288ZM121.833 44.8612L121.781 43.8626L120.833 43.9117V44.8612H121.833ZM121.833 44.8787V45.8787H122.833V44.8787H121.833ZM72.4905 44.8787H71.4905V45.8787H72.4905V44.8787ZM72.4905 44.8084H73.4905V43.9075L72.5945 43.8138L72.4905 44.8084ZM72.5306 19.2597L72.6315 20.2546L73.4756 20.1689L73.5286 19.3221L72.5306 19.2597ZM113.982 22.2058C114.024 21.6577 114.046 21.1039 114.046 20.5454H112.046C112.046 21.0525 112.026 21.5549 111.988 22.0518L113.982 22.2058ZM121.157 18.1935C117.812 18.1935 114.741 19.3815 112.348 21.3577L113.622 22.8998C115.67 21.2087 118.294 20.1935 121.157 20.1935V18.1935ZM135 32.0361C135 24.391 128.802 18.1935 121.157 18.1935V20.1935C127.698 20.1935 133 25.4956 133 32.0361H135ZM121.885 45.8599C129.192 45.4811 135 39.4372 135 32.0361H133C133 38.3673 128.031 43.5386 121.781 43.8626L121.885 45.8599ZM120.833 44.8612V44.8787H122.833V44.8612H120.833ZM121.833 43.8787H72.4905V45.8787H121.833V43.8787ZM73.4905 44.8787V44.8084H71.4905V44.8787H73.4905ZM60 32.0361C60 39.1896 65.4253 45.0746 72.3864 45.8029L72.5945 43.8138C66.6412 43.1909 62 38.1548 62 32.0361H60ZM72.4296 18.2648C65.4478 18.9733 60 24.8679 60 32.0361H62C62 25.9047 66.6604 20.8605 72.6315 20.2546L72.4296 18.2648ZM92.7683 -0.732422C81.4696 -0.732422 72.2285 8.07348 71.5325 19.1973L73.5286 19.3221C74.1591 9.24573 82.5324 1.26758 92.7683 1.26758V-0.732422ZM114.046 20.5454C114.046 8.79396 104.52 -0.732422 92.7683 -0.732422V1.26758C103.415 1.26758 112.046 9.89853 112.046 20.5454H114.046Z" fill="url(#paint1_linear_203_1135)" fill-opacity="0.3" mask="url(#path-1-inside-1_203_1135)"/>
</g>
<g filter="url(#filter1_f_203_1135)">
<ellipse cx="53.5" cy="72.7676" rx="31.5" ry="9.5" fill="#4DB4FF"/>
</g>
<g filter="url(#filter2_bi_203_1135)">
<path fill-rule="evenodd" clip-rule="evenodd" d="M77 35.2676C77 36.0558 76.9696 36.8369 76.9099 37.6098C80.1949 34.8972 84.4071 33.2676 89 33.2676C99.4934 33.2676 108 41.7742 108 52.2676C108 62.4256 100.029 70.7217 90 71.2417V71.2676H89H19H17V71.1636C7.44667 70.1642 0 62.0855 0 52.2676C0 42.4293 7.47752 34.3376 17.0593 33.3655C18.0405 17.6832 31.0704 5.26758 47 5.26758C63.5685 5.26758 77 18.699 77 35.2676Z" fill="url(#paint2_linear_203_1135)"/>
</g>
<path fill-rule="evenodd" clip-rule="evenodd" d="M27.3256 83.8453C27.732 84.122 28.2092 84.2689 28.6969 84.2675C29.1384 84.2706 29.573 84.1554 29.9578 83.9332C30.3426 83.7111 30.6643 83.3898 30.891 83.001L58.9342 36.2793C59.293 35.6808 59.4079 34.9614 59.254 34.2766C59.1 33.5919 58.6895 32.9969 58.1114 32.6203C57.5157 32.2763 56.8144 32.1794 56.1513 32.3495C55.4882 32.5196 54.9138 32.9439 54.546 33.5351L26.5028 80.1864C26.3159 80.48 26.1887 80.8093 26.1289 81.1546C26.0691 81.4999 26.0778 81.854 26.1547 82.1957C26.2315 82.5375 26.3748 82.8597 26.5761 83.1432C26.7773 83.4267 27.0322 83.6655 27.3256 83.8453ZM8.60718 84.2675C8.11947 84.2689 7.64229 84.122 7.23587 83.8453C6.9425 83.6655 6.68756 83.4267 6.48636 83.1432C6.28515 82.8597 6.14182 82.5375 6.06498 82.1957C5.98814 81.854 5.97934 81.4999 6.03916 81.1546C6.09898 80.8093 6.22618 80.48 6.41308 80.1864L26.5027 47.256C26.678 46.955 26.9107 46.6934 27.1869 46.4869C27.4631 46.2804 27.7771 46.1333 28.1101 46.0544C28.4431 45.9756 28.7882 45.9666 29.1247 46.028C29.4611 46.0894 29.782 46.2199 30.0681 46.4117C30.6463 46.7882 31.0567 47.3832 31.2107 48.068C31.3646 48.7527 31.2498 49.4721 30.8909 50.0706L10.8012 83.001C10.5745 83.3898 10.2529 83.7111 9.86808 83.9332C9.48328 84.1554 9.04867 84.2706 8.60718 84.2675ZM50.2263 84.2675C49.7386 84.2689 49.2614 84.122 48.855 83.8453C48.5616 83.6655 48.3067 83.4267 48.1055 83.1432C47.9043 82.8597 47.761 82.5375 47.6841 82.1958C47.6073 81.854 47.5985 81.4999 47.6583 81.1546C47.7181 80.8093 47.8453 80.48 48.0322 80.1864L62.2252 56.8256C62.5921 56.2323 63.172 55.811 63.8392 55.653C64.5064 55.495 65.2074 55.6129 65.7906 55.9812C66.3688 56.3578 66.7792 56.9528 66.9332 57.6375C67.0872 58.3222 66.9723 59.0417 66.6134 59.6401L52.4204 83.001C52.1887 83.3851 51.866 83.7028 51.4823 83.9242C51.0986 84.1457 50.6665 84.2638 50.2263 84.2675Z" fill="url(#paint3_linear_203_1135)"/>
<path fill-rule="evenodd" clip-rule="evenodd" d="M17.9594 71.2676H17.0001V71.1636C15.4508 71.0015 13.9569 70.6532 12.5411 70.1416L26.5028 47.256C26.678 46.955 26.9107 46.6934 27.1869 46.4869C27.4632 46.2804 27.7772 46.1333 28.1102 46.0544C28.4432 45.9756 28.7883 45.9666 29.1247 46.028C29.4612 46.0894 29.7821 46.2199 30.0682 46.4117C30.6463 46.7882 31.0567 47.3832 31.2107 48.068C31.3647 48.7527 31.2498 49.4721 30.891 50.0706L17.9594 71.2676ZM31.8642 71.2676L54.5461 33.5351C54.9139 32.9439 55.4883 32.5196 56.1513 32.3495C56.8144 32.1794 57.5158 32.2763 58.1114 32.6203C58.6896 32.9969 59.1 33.5919 59.254 34.2766C59.408 34.9614 59.2931 35.6808 58.9342 36.2793L37.9336 71.2676H31.8642ZM59.5491 71.2676H53.451L62.2253 56.8256C62.5922 56.2322 63.172 55.811 63.8392 55.653C64.5065 55.495 65.2075 55.6129 65.7907 55.9812C66.3688 56.3578 66.7793 56.9528 66.9333 57.6375C67.0872 58.3222 66.9723 59.0417 66.6135 59.6401L59.5491 71.2676Z" fill="#E0F3FE"/>
<defs>
<filter id="filter0_bi_203_1135" x="54" y="-6.73242" width="87" height="58.6111" filterUnits="userSpaceOnUse" color-interpolation-filters="sRGB">
<feFlood flood-opacity="0" result="BackgroundImageFix"/>
<feGaussianBlur in="BackgroundImageFix" stdDeviation="3.5"/>
<feComposite in2="SourceAlpha" operator="in" result="effect1_backgroundBlur_203_1135"/>
<feBlend mode="normal" in="SourceGraphic" in2="effect1_backgroundBlur_203_1135" result="shape"/>
<feColorMatrix in="SourceAlpha" type="matrix" values="0 0 0 0 0 0 0 0 0 0 0 0 0 0 0 0 0 0 127 0" result="hardAlpha"/>
<feOffset dy="2"/>
<feGaussianBlur stdDeviation="4"/>
<feComposite in2="hardAlpha" operator="arithmetic" k2="-1" k3="1"/>
<feColorMatrix type="matrix" values="0 0 0 0 0 0 0 0 0 0.82 0 0 0 0 1 0 0 0 0.25 0"/>
<feBlend mode="normal" in2="shape" result="effect2_innerShadow_203_1135"/>
</filter>
<filter id="filter1_f_203_1135" x="0" y="41.2676" width="107" height="63" filterUnits="userSpaceOnUse" color-interpolation-filters="sRGB">
<feFlood flood-opacity="0" result="BackgroundImageFix"/>
<feBlend mode="normal" in="SourceGraphic" in2="BackgroundImageFix" result="shape"/>
<feGaussianBlur stdDeviation="11" result="effect1_foregroundBlur_203_1135"/>
</filter>
<filter id="filter2_bi_203_1135" x="-7" y="-1.73242" width="122" height="80" filterUnits="userSpaceOnUse" color-interpolation-filters="sRGB">
<feFlood flood-opacity="0" result="BackgroundImageFix"/>
<feGaussianBlur in="BackgroundImageFix" stdDeviation="3.5"/>
<feComposite in2="SourceAlpha" operator="in" result="effect1_backgroundBlur_203_1135"/>
<feBlend mode="normal" in="SourceGraphic" in2="effect1_backgroundBlur_203_1135" result="shape"/>
<feColorMatrix in="SourceAlpha" type="matrix" values="0 0 0 0 0 0 0 0 0 0 0 0 0 0 0 0 0 0 127 0" result="hardAlpha"/>
<feOffset dy="2"/>
<feGaussianBlur stdDeviation="4"/>
<feComposite in2="hardAlpha" operator="arithmetic" k2="-1" k3="1"/>
<feColorMatrix type="matrix" values="0 0 0 0 0 0 0 0 0 0.82 0 0 0 0 1 0 0 0 0.25 0"/>
<feBlend mode="normal" in2="shape" result="effect2_innerShadow_203_1135"/>
</filter>
<linearGradient id="paint0_linear_203_1135" x1="79.5" y1="54.7675" x2="159.5" y2="-25.7324" gradientUnits="userSpaceOnUse">
<stop stop-color="#0082DF"/>
<stop offset="0.8818" stop-color="#3BADFF" stop-opacity="0"/>
</linearGradient>
<linearGradient id="paint1_linear_203_1135" x1="79" y1="-2.73242" x2="129" y2="52.7676" gradientUnits="userSpaceOnUse">
<stop stop-color="#0699D7"/>
<stop offset="1" stop-color="#0699D7" stop-opacity="0"/>
</linearGradient>
<linearGradient id="paint2_linear_203_1135" x1="56" y1="94.7676" x2="96.5" y2="5.26758" gradientUnits="userSpaceOnUse">
<stop stop-color="#0082DF"/>
<stop offset="0.299998" stop-color="#48B2FF" stop-opacity="0.75"/>
<stop offset="1" stop-color="#3BADFF" stop-opacity="0"/>
</linearGradient>
<linearGradient id="paint3_linear_203_1135" x1="36.5" y1="32.2676" x2="36.5" y2="84.2676" gradientUnits="userSpaceOnUse">
<stop stop-color="#D7F0FF"/>
<stop offset="1" stop-color="#0072DC"/>
</linearGradient>
</defs>
</svg>
