<svg width="116" height="108" viewBox="0 0 116 108" fill="none" xmlns="http://www.w3.org/2000/svg">
<g filter="url(#filter0_f_203_948)">
<ellipse cx="53.4991" cy="75.9565" rx="31.5" ry="9.5" fill="#4DB4FF"/>
</g>
<path fill-rule="evenodd" clip-rule="evenodd" d="M94.4998 5.54883C94.4998 2.51126 92.0374 0.0488281 88.9998 0.0488281C85.9622 0.0488281 83.4998 2.51126 83.4998 5.54883V13.7715L77.6855 7.9572C75.5376 5.80932 72.0552 5.80932 69.9073 7.9572C67.7594 10.1051 67.7594 13.5875 69.9073 15.7354L75.7216 21.5496L67.4991 21.5496C64.4616 21.5496 61.9991 24.0121 61.9991 27.0496C61.9991 30.0872 64.4616 32.5496 67.4991 32.5496H75.7217L69.9074 38.3639C67.7595 40.5118 67.7595 43.9942 69.9074 46.1421C72.0553 48.29 75.5377 48.29 77.6856 46.1421L83.4998 40.3279V48.5504C83.4998 51.588 85.9622 54.0504 88.9998 54.0504C92.0374 54.0504 94.4998 51.588 94.4998 48.5504V40.3279L100.314 46.1421C102.462 48.29 105.944 48.29 108.092 46.1421C110.24 43.9942 110.24 40.5118 108.092 38.3639L102.278 32.5496H110.501C113.538 32.5496 116.001 30.0872 116.001 27.0496C116.001 24.0121 113.538 21.5496 110.501 21.5496L102.278 21.5496L108.092 15.7354C110.24 13.5875 110.24 10.1051 108.092 7.9572C105.944 5.80932 102.462 5.80932 100.314 7.9572L94.4998 13.7715V5.54883Z" fill="url(#paint0_linear_203_948)"/>
<g filter="url(#filter1_bi_203_948)">
<path fill-rule="evenodd" clip-rule="evenodd" d="M76.9991 38.4565C76.9991 39.2448 76.9687 40.0259 76.9091 40.7988C80.194 38.0862 84.4063 36.4565 88.9991 36.4565C99.4926 36.4565 107.999 44.9631 107.999 55.4565C107.999 65.6145 100.028 73.9107 89.9991 74.4307V74.4565H88.9991H18.9991H16.9991V74.3525C7.44582 73.3531 -0.000854492 65.2745 -0.000854492 55.4565C-0.000854492 45.6183 7.47666 37.5265 17.0585 36.5544C18.0397 20.8721 31.0695 8.45654 46.9991 8.45654C63.5677 8.45654 76.9991 21.888 76.9991 38.4565Z" fill="url(#paint1_linear_203_948)"/>
</g>
<defs>
<filter id="filter0_f_203_948" x="-0.000854492" y="44.4565" width="107" height="63" filterUnits="userSpaceOnUse" color-interpolation-filters="sRGB">
<feFlood flood-opacity="0" result="BackgroundImageFix"/>
<feBlend mode="normal" in="SourceGraphic" in2="BackgroundImageFix" result="shape"/>
<feGaussianBlur stdDeviation="11" result="effect1_foregroundBlur_203_948"/>
</filter>
<filter id="filter1_bi_203_948" x="-7.00085" y="1.45654" width="122" height="80" filterUnits="userSpaceOnUse" color-interpolation-filters="sRGB">
<feFlood flood-opacity="0" result="BackgroundImageFix"/>
<feGaussianBlur in="BackgroundImageFix" stdDeviation="3.5"/>
<feComposite in2="SourceAlpha" operator="in" result="effect1_backgroundBlur_203_948"/>
<feBlend mode="normal" in="SourceGraphic" in2="effect1_backgroundBlur_203_948" result="shape"/>
<feColorMatrix in="SourceAlpha" type="matrix" values="0 0 0 0 0 0 0 0 0 0 0 0 0 0 0 0 0 0 127 0" result="hardAlpha"/>
<feOffset dy="2"/>
<feGaussianBlur stdDeviation="4"/>
<feComposite in2="hardAlpha" operator="arithmetic" k2="-1" k3="1"/>
<feColorMatrix type="matrix" values="0 0 0 0 0 0 0 0 0 0.82 0 0 0 0 1 0 0 0 0.25 0"/>
<feBlend mode="normal" in2="shape" result="effect2_innerShadow_203_948"/>
</filter>
<linearGradient id="paint0_linear_203_948" x1="69.708" y1="43.1216" x2="120.996" y2="-0.167487" gradientUnits="userSpaceOnUse">
<stop stop-color="#0056D6"/>
<stop offset="1" stop-color="#ADD8FF"/>
</linearGradient>
<linearGradient id="paint1_linear_203_948" x1="55.9991" y1="97.9565" x2="96.4991" y2="8.45654" gradientUnits="userSpaceOnUse">
<stop stop-color="#0082DF"/>
<stop offset="0.299998" stop-color="#48B2FF" stop-opacity="0.75"/>
<stop offset="1" stop-color="#3BADFF" stop-opacity="0"/>
</linearGradient>
</defs>
</svg>
