<svg width="134" height="104" viewBox="0 0 134 104" fill="none" xmlns="http://www.w3.org/2000/svg">
<g filter="url(#filter0_bi_203_230)">
<path fill-rule="evenodd" clip-rule="evenodd" d="M113.046 20.2778C113.046 20.8106 113.025 21.3387 112.985 21.8612C115.206 20.0275 118.053 18.9259 121.157 18.9259C128.25 18.9259 134 24.6758 134 31.7685C134 38.6346 128.612 44.2423 121.833 44.5936V44.6111H72.4905V44.5408C66.0333 43.8651 61 38.4046 61 31.7685C61 25.1187 66.0541 19.6493 72.5306 18.9921C73.1938 8.39202 82.001 0 92.7683 0C103.967 0 113.046 9.07867 113.046 20.2778Z" fill="url(#paint0_linear_203_230)"/>
</g>
<g filter="url(#filter1_f_203_230)">
<ellipse cx="53.5" cy="72.5" rx="31.5" ry="9.5" fill="#4DB4FF"/>
</g>
<g filter="url(#filter2_bi_203_230)">
<path fill-rule="evenodd" clip-rule="evenodd" d="M77 35C77 35.7882 76.9696 36.5693 76.9099 37.3422C80.1949 34.6296 84.4071 33 89 33C99.4934 33 108 41.5066 108 52C108 62.158 100.029 70.4541 90 70.9741V71H89H19H17V70.896C7.44667 69.8966 0 61.8179 0 52C0 42.1618 7.47752 34.07 17.0593 33.0979C18.0405 17.4156 31.0704 5 47 5C63.5685 5 77 18.4315 77 35Z" fill="url(#paint1_linear_203_230)"/>
</g>
<defs>
<filter id="filter0_bi_203_230" x="54" y="-7" width="87" height="58.6113" filterUnits="userSpaceOnUse" color-interpolation-filters="sRGB">
<feFlood flood-opacity="0" result="BackgroundImageFix"/>
<feGaussianBlur in="BackgroundImageFix" stdDeviation="3.5"/>
<feComposite in2="SourceAlpha" operator="in" result="effect1_backgroundBlur_203_230"/>
<feBlend mode="normal" in="SourceGraphic" in2="effect1_backgroundBlur_203_230" result="shape"/>
<feColorMatrix in="SourceAlpha" type="matrix" values="0 0 0 0 0 0 0 0 0 0 0 0 0 0 0 0 0 0 127 0" result="hardAlpha"/>
<feOffset dy="2"/>
<feGaussianBlur stdDeviation="4"/>
<feComposite in2="hardAlpha" operator="arithmetic" k2="-1" k3="1"/>
<feColorMatrix type="matrix" values="0 0 0 0 0 0 0 0 0 0.82 0 0 0 0 1 0 0 0 0.25 0"/>
<feBlend mode="normal" in2="shape" result="effect2_innerShadow_203_230"/>
</filter>
<filter id="filter1_f_203_230" x="0" y="41" width="107" height="63" filterUnits="userSpaceOnUse" color-interpolation-filters="sRGB">
<feFlood flood-opacity="0" result="BackgroundImageFix"/>
<feBlend mode="normal" in="SourceGraphic" in2="BackgroundImageFix" result="shape"/>
<feGaussianBlur stdDeviation="11" result="effect1_foregroundBlur_203_230"/>
</filter>
<filter id="filter2_bi_203_230" x="-7" y="-2" width="122" height="80" filterUnits="userSpaceOnUse" color-interpolation-filters="sRGB">
<feFlood flood-opacity="0" result="BackgroundImageFix"/>
<feGaussianBlur in="BackgroundImageFix" stdDeviation="3.5"/>
<feComposite in2="SourceAlpha" operator="in" result="effect1_backgroundBlur_203_230"/>
<feBlend mode="normal" in="SourceGraphic" in2="effect1_backgroundBlur_203_230" result="shape"/>
<feColorMatrix in="SourceAlpha" type="matrix" values="0 0 0 0 0 0 0 0 0 0 0 0 0 0 0 0 0 0 127 0" result="hardAlpha"/>
<feOffset dy="2"/>
<feGaussianBlur stdDeviation="4"/>
<feComposite in2="hardAlpha" operator="arithmetic" k2="-1" k3="1"/>
<feColorMatrix type="matrix" values="0 0 0 0 0 0 0 0 0 0.82 0 0 0 0 1 0 0 0 0.25 0"/>
<feBlend mode="normal" in2="shape" result="effect2_innerShadow_203_230"/>
</filter>
<linearGradient id="paint0_linear_203_230" x1="79.5" y1="54.5" x2="126.227" y2="-7.27901e-06" gradientUnits="userSpaceOnUse">
<stop offset="0.170077" stop-color="#0082DF"/>
<stop offset="0.538523" stop-color="#48B2FF" stop-opacity="0.9"/>
<stop offset="1" stop-color="#3BADFF" stop-opacity="0"/>
</linearGradient>
<linearGradient id="paint1_linear_203_230" x1="56" y1="94.5" x2="96.5" y2="5" gradientUnits="userSpaceOnUse">
<stop stop-color="#0082DF"/>
<stop offset="0.299998" stop-color="#48B2FF" stop-opacity="0.75"/>
<stop offset="1" stop-color="#3BADFF" stop-opacity="0"/>
</linearGradient>
</defs>
</svg>
