<svg width="110" height="111" viewBox="0 0 110 111" fill="none" xmlns="http://www.w3.org/2000/svg">
<path fill-rule="evenodd" clip-rule="evenodd" d="M61.1953 29.2421C61.1953 25.8216 58.4225 23.0488 55.0021 23.0488C51.5816 23.0488 48.8088 25.8216 48.8088 29.2421V40.0993L41.1315 32.4221C38.7129 30.0034 34.7915 30.0034 32.3729 32.4221C29.9543 34.8407 29.9543 38.7621 32.3729 41.1807L40.05 48.8578L29.1933 48.8578C25.7728 48.8578 23 51.6306 23 55.0511C23 58.4715 25.7728 61.2443 29.1933 61.2443L40.0501 61.2443L32.373 68.9214C29.9544 71.34 29.9544 75.2614 32.373 77.68C34.7916 80.0987 38.713 80.0987 41.1316 77.68L48.8088 70.0028V80.86C48.8088 84.2804 51.5816 87.0533 55.0021 87.0533C58.4225 87.0533 61.1953 84.2804 61.1953 80.86V70.0031L68.8723 77.68C71.2909 80.0987 75.2123 80.0987 77.6309 77.68C80.0495 75.2614 80.0495 71.34 77.6309 68.9214L69.9538 61.2443L80.8111 61.2443C84.2316 61.2443 87.0044 58.4715 87.0044 55.0511C87.0044 51.6306 84.2316 48.8578 80.8111 48.8578L69.9539 48.8578L77.631 41.1807C80.0496 38.7621 80.0496 34.8407 77.631 32.4221C75.2123 30.0034 71.291 30.0034 68.8724 32.4221L61.1953 40.0991V29.2421Z" fill="url(#paint0_linear_203_993)"/>
<defs>
<linearGradient id="paint0_linear_203_993" x1="32.1368" y1="74.1" x2="92.9251" y2="22.7925" gradientUnits="userSpaceOnUse">
<stop stop-color="#0056D6"/>
<stop offset="1" stop-color="#ADD8FF"/>
</linearGradient>
</defs>
</svg>
