<svg width="100" height="101" viewBox="0 0 100 101" fill="none" xmlns="http://www.w3.org/2000/svg">
<path fill-rule="evenodd" clip-rule="evenodd" d="M65.1476 43.198C63.9615 43.198 63 44.1595 63 45.3456C63 46.5317 63.9615 47.4932 65.1476 47.4932L68.816 47.4932L66.222 50.0871C65.3834 50.9258 65.3834 52.2856 66.222 53.1243C67.0607 53.9629 68.4205 53.9629 69.2592 53.1243L71.8532 50.5303L71.8532 54.1986C71.8532 55.3847 72.8147 56.3462 74.0007 56.3462C75.1868 56.3462 76.1483 55.3847 76.1483 54.1986L76.1483 50.5304L78.7423 53.1244C79.581 53.963 80.9407 53.963 81.7794 53.1244C82.6181 52.2857 82.6181 50.9259 81.7794 50.0872L79.1853 47.4932L82.8539 47.4932C84.0399 47.4932 85.0014 46.5317 85.0014 45.3456C85.0014 44.1595 84.0399 43.198 82.8539 43.198L79.1854 43.198L81.7794 40.604C82.6181 39.7653 82.6181 38.4056 81.7794 37.5669C80.9407 36.7282 79.581 36.7282 78.7423 37.5669L76.1483 40.1609L76.1483 36.4923C76.1483 35.3063 75.1868 34.3448 74.0007 34.3448C72.8147 34.3448 71.8532 35.3063 71.8532 36.4923L71.8532 40.161L69.2592 37.567C68.4205 36.7283 67.0607 36.7283 66.222 37.567C65.3834 38.4057 65.3834 39.7655 66.222 40.6041L68.8159 43.198L65.1476 43.198Z" fill="url(#paint0_linear_203_999)"/>
<path fill-rule="evenodd" clip-rule="evenodd" d="M17.0244 32.9707C15.3541 32.9707 14 34.3248 14 35.9951C14 37.6654 15.3541 39.0195 17.0244 39.0195L21.6996 39.0195L18.3937 42.3254C17.2126 43.5065 17.2126 45.4214 18.3937 46.6025C19.5748 47.7836 21.4897 47.7836 22.6708 46.6025L25.9766 43.2967L25.9766 47.9717C25.9766 49.642 27.3307 50.9961 29.001 50.9961C30.6713 50.9961 32.0254 49.642 32.0254 47.9717L32.0254 43.2967L35.3312 46.6025C36.5123 47.7836 38.4272 47.7836 39.6083 46.6025C40.7894 45.4214 40.7894 43.5064 39.6083 42.3253L36.3025 39.0195L40.9776 39.0195C42.6479 39.0195 44.002 37.6654 44.002 35.9951C44.002 34.3248 42.6479 32.9707 40.9776 32.9707L36.3026 32.9707L39.6083 29.665C40.7894 28.4839 40.7894 26.569 39.6083 25.3879C38.4272 24.2068 36.5123 24.2068 35.3312 25.3879L32.0254 28.6937L32.0254 24.0185C32.0254 22.3482 30.6713 20.9941 29.001 20.9941C27.3307 20.9941 25.9766 22.3482 25.9766 24.0185L25.9766 28.6936L22.6708 25.3879C21.4897 24.2068 19.5748 24.2068 18.3937 25.3879C17.2126 26.569 17.2126 28.4839 18.3937 29.665L21.6994 32.9707L17.0244 32.9707Z" fill="url(#paint1_linear_203_999)"/>
<path fill-rule="evenodd" clip-rule="evenodd" d="M37.4084 63.836C35.9627 63.836 34.7906 65.008 34.7906 66.4537C34.7906 67.8995 35.9627 69.0715 37.4084 69.0715L41.4717 69.0715L38.5985 71.9446C37.5762 72.9669 37.5762 74.6244 38.5985 75.6467C39.6208 76.669 41.2783 76.669 42.3006 75.6467L45.1737 72.7735L45.1737 76.8368C45.1737 78.2826 46.3457 79.4546 47.7915 79.4546C49.2372 79.4546 50.4092 78.2826 50.4092 76.8368L50.4092 72.7735L53.2824 75.6467C54.3047 76.669 55.9621 76.669 56.9844 75.6467C58.0067 74.6244 58.0067 72.9669 56.9844 71.9446L54.1113 69.0715L58.1745 69.0715C59.6203 69.0715 60.7923 67.8995 60.7923 66.4537C60.7923 65.008 59.6203 63.836 58.1745 63.836L54.1113 63.836L56.9844 60.9628C58.0067 59.9405 58.0067 58.2831 56.9844 57.2608C55.9621 56.2385 54.3047 56.2385 53.2824 57.2608L50.4092 60.1339L50.4092 56.0707C50.4092 54.6249 49.2372 53.4529 47.7915 53.4529C46.3457 53.4529 45.1737 54.6249 45.1737 56.0707L45.1737 60.1339L42.3005 57.2608C41.2783 56.2385 39.6208 56.2385 38.5985 57.2608C37.5762 58.2831 37.5762 59.9405 38.5985 60.9628L41.4716 63.836L37.4084 63.836Z" fill="url(#paint2_linear_203_999)"/>
<defs>
<linearGradient id="paint0_linear_203_999" x1="80.5488" y1="53.2054" x2="62.9119" y2="32.3095" gradientUnits="userSpaceOnUse">
<stop stop-color="#0056D6"/>
<stop offset="1" stop-color="#ADD8FF"/>
</linearGradient>
<linearGradient id="paint1_linear_203_999" x1="37.9302" y1="46.7132" x2="13.8798" y2="18.2188" gradientUnits="userSpaceOnUse">
<stop stop-color="#0056D6"/>
<stop offset="1" stop-color="#ADD8FF"/>
</linearGradient>
<linearGradient id="paint2_linear_203_999" x1="55.5301" y1="75.7428" x2="34.6865" y2="51.0477" gradientUnits="userSpaceOnUse">
<stop stop-color="#0056D6"/>
<stop offset="1" stop-color="#ADD8FF"/>
</linearGradient>
</defs>
</svg>
