<svg width="108" height="101" viewBox="0 0 108 101" fill="none" xmlns="http://www.w3.org/2000/svg">
<g filter="url(#filter0_f_203_1024)">
<ellipse cx="53.5" cy="68.1733" rx="31.5" ry="9.5" fill="#4DB4FF"/>
</g>
<path d="M49.8069 75.9547L62.9076 51.9049C62.9853 51.7621 63.1348 51.6733 63.2973 51.6733H80.2814C80.6114 51.6733 80.826 52.0208 80.6782 52.3159L73.8724 65.9058C73.7246 66.2009 73.9391 66.5483 74.2692 66.5483H81L43.8784 99.0297C43.5053 99.3562 42.959 98.918 43.1967 98.4829L54.7873 77.2674C54.9489 76.9717 54.7349 76.6108 54.3979 76.6108H50.1966C49.8598 76.6108 49.6458 76.2505 49.8069 75.9547Z" fill="url(#paint0_linear_203_1024)"/>
<g filter="url(#filter1_bi_203_1024)">
<path fill-rule="evenodd" clip-rule="evenodd" d="M77 30.6733C77 31.4616 76.9696 32.2427 76.9099 33.0156C80.1949 30.303 84.4071 28.6733 89 28.6733C99.4934 28.6733 108 37.1799 108 47.6733C108 57.8313 100.029 66.1275 90 66.6475V66.6733H89H19H17V66.5693C7.44667 65.5699 0 57.4913 0 47.6733C0 37.8351 7.47752 29.7433 17.0593 28.7712C18.0405 13.0889 31.0704 0.67334 47 0.67334C63.5685 0.67334 77 14.1048 77 30.6733Z" fill="url(#paint1_linear_203_1024)"/>
</g>
<path d="M12.7772 77.6288C12.2898 77.6451 11.8084 77.5129 11.3937 77.2488C11.0949 77.078 10.8328 76.8471 10.623 76.5699C10.4132 76.2927 10.2601 75.975 10.1728 75.6358C10.0856 75.2966 10.066 74.9429 10.1152 74.5959C10.1644 74.249 10.2815 73.9159 10.4593 73.6167L29.5319 40.0871C29.6979 39.7808 29.9225 39.5122 30.1923 39.2974C30.462 39.0825 30.7714 38.9259 31.1018 38.8369C31.4323 38.7479 31.7769 38.7283 32.1151 38.7794C32.4533 38.8304 32.778 38.9511 33.0698 39.134C33.6592 39.4927 34.0877 40.0749 34.2625 40.7546C34.4374 41.4343 34.3446 42.1569 34.0042 42.7661L14.9315 76.2957C14.7168 76.6913 14.4052 77.0223 14.0273 77.2561C13.6495 77.4899 13.2186 77.6184 12.7772 77.6288Z" fill="url(#paint2_linear_203_1024)"/>
<path d="M40.4836 75.8561C39.9961 75.8725 39.5147 75.7402 39.1 75.4761C38.8012 75.3053 38.5391 75.0744 38.3293 74.7972C38.1195 74.5201 37.9665 74.2023 37.8792 73.8631C37.7919 73.5239 37.7723 73.1702 37.8215 72.8233C37.8708 72.4763 37.9878 72.1433 38.1657 71.8441L51.6372 48.0599C51.9858 47.4556 52.5525 47.0169 53.2146 46.8385C53.8767 46.6601 54.5809 46.7565 55.1751 47.1068C55.7645 47.4655 56.193 48.0477 56.3679 48.7274C56.5427 49.4071 56.4499 50.1297 56.1095 50.7389L42.6379 74.5231C42.4181 74.9141 42.1052 75.2415 41.7285 75.4746C41.3518 75.7077 40.9234 75.839 40.4836 75.8561Z" fill="url(#paint3_linear_203_1024)"/>
<path d="M21.4836 85.8561C20.9961 85.8725 20.5147 85.7402 20.1 85.4761C19.8012 85.3053 19.5391 85.0744 19.3293 84.7972C19.1195 84.5201 18.9665 84.2023 18.8792 83.8631C18.7919 83.5239 18.7723 83.1702 18.8215 82.8233C18.8708 82.4763 18.9878 82.1433 19.1657 81.8441L32.6372 58.0599C32.9858 57.4556 33.5525 57.0169 34.2146 56.8385C34.8767 56.6601 35.5809 56.7565 36.1751 57.1068C36.7645 57.4655 37.193 58.0477 37.3679 58.7274C37.5427 59.4071 37.4499 60.1297 37.1095 60.7389L23.6379 84.5231C23.4181 84.9141 23.1052 85.2415 22.7285 85.4746C22.3518 85.7077 21.9234 85.839 21.4836 85.8561Z" fill="url(#paint4_linear_203_1024)"/>
<path fill-rule="evenodd" clip-rule="evenodd" d="M20.405 66.6733H18.9999H16.9999V66.5693C16.2141 66.4871 15.4426 66.357 14.6884 66.182L29.5319 40.0871C29.6979 39.7808 29.9225 39.5121 30.1922 39.2973C30.462 39.0825 30.7714 38.9258 31.1018 38.8368C31.4322 38.7478 31.7769 38.7283 32.1151 38.7793C32.4532 38.8304 32.778 38.951 33.0698 39.134C33.6592 39.4927 34.0877 40.0749 34.2625 40.7546C34.4374 41.4343 34.3446 42.1569 34.0042 42.766L20.405 66.6733ZM33.7481 66.6733H27.7585L32.6372 58.0598C32.9858 57.4556 33.5525 57.0168 34.2145 56.8385C34.8766 56.6601 35.5809 56.7565 36.1751 57.1068C36.7645 57.4655 37.193 58.0476 37.3678 58.7273C37.5427 59.407 37.4499 60.1296 37.1095 60.7388L33.7481 66.6733ZM47.084 66.6733H41.0944L51.6372 48.0598C51.9858 47.4556 52.5525 47.0168 53.2145 46.8385C53.8766 46.6601 54.5809 46.7565 55.1751 47.1068C55.7645 47.4655 56.193 48.0476 56.3678 48.7273C56.5427 49.407 56.4499 50.1296 56.1095 50.7388L47.084 66.6733Z" fill="#E0F3FE"/>
<defs>
<filter id="filter0_f_203_1024" x="0" y="36.6733" width="107" height="63" filterUnits="userSpaceOnUse" color-interpolation-filters="sRGB">
<feFlood flood-opacity="0" result="BackgroundImageFix"/>
<feBlend mode="normal" in="SourceGraphic" in2="BackgroundImageFix" result="shape"/>
<feGaussianBlur stdDeviation="11" result="effect1_foregroundBlur_203_1024"/>
</filter>
<filter id="filter1_bi_203_1024" x="-7" y="-6.32666" width="122" height="80" filterUnits="userSpaceOnUse" color-interpolation-filters="sRGB">
<feFlood flood-opacity="0" result="BackgroundImageFix"/>
<feGaussianBlur in="BackgroundImageFix" stdDeviation="3.5"/>
<feComposite in2="SourceAlpha" operator="in" result="effect1_backgroundBlur_203_1024"/>
<feBlend mode="normal" in="SourceGraphic" in2="effect1_backgroundBlur_203_1024" result="shape"/>
<feColorMatrix in="SourceAlpha" type="matrix" values="0 0 0 0 0 0 0 0 0 0 0 0 0 0 0 0 0 0 127 0" result="hardAlpha"/>
<feOffset dy="2"/>
<feGaussianBlur stdDeviation="4"/>
<feComposite in2="hardAlpha" operator="arithmetic" k2="-1" k3="1"/>
<feColorMatrix type="matrix" values="0 0 0 0 0 0 0 0 0 0.82 0 0 0 0 1 0 0 0 0.25 0"/>
<feBlend mode="normal" in2="shape" result="effect2_innerShadow_203_1024"/>
</filter>
<linearGradient id="paint0_linear_203_1024" x1="61.5" y1="51.6733" x2="61.5" y2="100.673" gradientUnits="userSpaceOnUse">
<stop stop-color="#F8FD00"/>
<stop offset="1" stop-color="#FD9800"/>
</linearGradient>
<linearGradient id="paint1_linear_203_1024" x1="60" y1="97.6733" x2="15.5" y2="22.1733" gradientUnits="userSpaceOnUse">
<stop stop-color="#FFEC45" stop-opacity="0.5"/>
<stop offset="0.419808" stop-color="#48B2FF" stop-opacity="0.65"/>
<stop offset="1" stop-color="#0082DF"/>
</linearGradient>
<linearGradient id="paint2_linear_203_1024" x1="29.5493" y1="25.8526" x2="1.60643" y2="67.7762" gradientUnits="userSpaceOnUse">
<stop stop-color="#D7F0FF"/>
<stop offset="1" stop-color="#0072DC"/>
</linearGradient>
<linearGradient id="paint3_linear_203_1024" x1="52.7626" y1="37.0691" x2="32.0087" y2="68.9488" gradientUnits="userSpaceOnUse">
<stop stop-color="#D7F0FF"/>
<stop offset="1" stop-color="#0072DC"/>
</linearGradient>
<linearGradient id="paint4_linear_203_1024" x1="33.7626" y1="47.0691" x2="13.0087" y2="78.9488" gradientUnits="userSpaceOnUse">
<stop stop-color="#D7F0FF"/>
<stop offset="1" stop-color="#0072DC"/>
</linearGradient>
</defs>
</svg>
